<svg width="24" height="24" viewBox="0 0 24 24" fill="none" xmlns="http://www.w3.org/2000/svg">
<rect x="3.5" y="3.5" width="17" height="17" rx="3" stroke="#3D3F46"/>
<path d="M13 8.5C14.3714 8.5 16.2381 8.5 17 8.5" stroke="#3D3F46"/>
<path d="M7.5 13.5C8.52857 14.5286 9.92857 15.9286 10.5 16.5" stroke="#3D3F46"/>
<path d="M10.5 13.5C9.47143 14.5286 8.07143 15.9286 7.5 16.5" stroke="#3D3F46"/>
<path fill-rule="evenodd" clip-rule="evenodd" d="M13 14.5H13.008H13.0161H13.0242H13.0322H13.0403H13.0484H13.0565H13.0646H13.0728H13.0809H13.0891H13.0972H13.1054H13.1136H13.1218H13.13H13.1382H13.1464H13.1546H13.1629H13.1711H13.1794H13.1877H13.196H13.2042H13.2126H13.2209H13.2292H13.2375H13.2459H13.2542H13.2626H13.2709H13.2793H13.2877H13.2961H13.3045H13.3129H13.3213H13.3297H13.3382H13.3466H13.3551H13.3635H13.372H13.3805H13.389H13.3975H13.406H13.4145H13.423H13.4315H13.44H13.4486H13.4571H13.4657H13.4742H13.4828H13.4914H13.5H13.5086H13.5172H13.5258H13.5344H13.543H13.5516H13.5602H13.5689H13.5775H13.5862H13.5948H13.6035H13.6122H13.6208H13.6295H13.6382H13.6469H13.6556H13.6643H13.673H13.6817H13.6905H13.6992H13.7079H13.7167H13.7254H13.7342H13.7429H13.7517H13.7604H13.7692H13.778H13.7868H13.7955H13.8043H13.8131H13.8219H13.8307H13.8395H13.8483H13.8571H13.866H13.8748H13.8836H13.8924H13.9013H13.9101H13.9189H13.9278H13.9366H13.9455H13.9543H13.9632H13.9721H13.9809H13.9898H13.9987H14.0075H14.0164H14.0253H14.0342H14.0431H14.052H14.0608H14.0697H14.0786H14.0875H14.0964H14.1053H14.1142H14.1231H14.132H14.141H14.1499H14.1588H14.1677H14.1766H14.1855H14.1945H14.2034H14.2123H14.2212H14.2301H14.2391H14.248H14.2569H14.2659H14.2748H14.2837H14.2926H14.3016H14.3105H14.3194H14.3284H14.3373H14.3462H14.3552H14.3641H14.373H14.382H14.3909H14.3998H14.4088H14.4177H14.4266H14.4356H14.4445H14.4534H14.4624H14.4713H14.4802H14.4892H14.4981H14.507H14.5159H14.5249H14.5338H14.5427H14.5516H14.5605H14.5695H14.5784H14.5873H14.5962H14.6051H14.614H14.6229H14.6318H14.6407H14.6496H14.6585H14.6674H14.6763H14.6852H14.6941H14.703H14.7118H14.7207H14.7296H14.7385H14.7473H14.7562H14.7651H14.7739H14.7828H14.7917H14.8005H14.8094H14.8182H14.827H14.8359H14.8447H14.8535H14.8624H14.8712H14.88H14.8888H14.8976H14.9064H14.9152H14.924H14.9328H14.9416H14.9504H14.9592H14.9679H14.9767H14.9855H14.9942H15.003H15.0117H15.0205H15.0292H15.0379H15.0467H15.0554H15.0641H15.0728H15.0815H15.0902H15.0989H15.1076H15.1163H15.125H15.1336H15.1423H15.151H15.1596H15.1682H15.1769H15.1855H15.1941H15.2028H15.2114H15.22H15.2286H15.2372H15.2457H15.2543H15.2629H15.2715H15.28H15.2886H15.2971H15.3056H15.3141H15.3227H15.3312H15.3397H15.3482H15.3567H15.3651H15.3736H15.3821H15.3905H15.399H15.4074H15.4158H15.4242H15.4326H15.441H15.4494H15.4578H15.4662H15.4746H15.4829H15.4913H15.4996H15.5079H15.5163H15.5246H15.5329H15.5412H15.5494H15.5577H15.566H15.5742H15.5825H15.5907H15.5989H15.6071H15.6153H15.6235H15.6317H15.6399H15.648H15.6562H15.6643H15.6725H15.6806H15.6887H15.6968H15.7049H15.713H15.721H15.7291H15.7371H15.7451H15.7532H15.7612H15.7692H15.7771H15.7851H15.7931H15.801H15.809H15.8169H15.8248H15.8327H15.8406H15.8485H15.8563H15.8642H15.872H15.8798H15.8876H15.8954H15.9032H15.911H15.9188H15.9265H15.9343H15.942H15.9497H15.9574H15.9651H15.9727H15.9804H15.988H15.9957H16.0033H16.0109H16.0185H16.026H16.0336H16.0411H16.0487H16.0562H16.0637H16.0712H16.0787H16.0861H16.0936H16.101H16.1084H16.1158H16.1232H16.1306H16.1379H16.1453H16.1526H16.1599H16.1672H16.1745H16.1817H16.189H16.1962H16.2035H16.2107H16.2178H16.225H16.2322H16.2393H16.2464H16.2535H16.2606H16.2677H16.2748H16.2818H16.2888H16.2958H16.3028H16.3098H16.3168H16.3237H16.3306H16.3375H16.3444H16.3513H16.3582H16.365H16.3718H16.3786H16.3854H16.3922H16.3989H16.4057H16.4124H16.4191H16.4258H16.4324H16.4391H16.4457H16.4523H16.4589H16.4655H16.472H16.4785H16.4851H16.4916H16.498H16.5045H16.5109H16.5174H16.5238H16.5301H16.5365H16.5429H16.5492H16.5555H16.5618H16.568H16.5743H16.5805H16.5867H16.5929H16.5991H16.6052H16.6114H16.6175H16.6236H16.6296H16.6357H16.6417H16.6477H16.6537H16.6597H16.6656H16.6716H16.6775H16.6833H16.6892H16.695H16.7009H16.7067H16.7124H16.7182H16.7239H16.7297H16.7353H16.741H16.7467H16.7523H16.7579H16.7635H16.7691H16.7746H16.7801H16.7856H16.7911H16.7965H16.802H16.8074H16.8128H16.8181H16.8235H16.8288H16.8341H16.8393H16.8446H16.8498H16.855H16.8602H16.8653H16.8705H16.8756H16.8807H16.8857H16.8908H16.8958H16.9008H16.9058H16.9107H16.9156H16.9205H16.9254H16.9302H16.9351H16.9399H16.9446H16.9494H16.9541H16.9588H16.9635H16.9681H16.9728H16.9774H16.9819H16.9865H16.991H16.9955H17V13.5H16.9955H16.991H16.9865H16.9819H16.9774H16.9728H16.9681H16.9635H16.9588H16.9541H16.9494H16.9446H16.9399H16.9351H16.9302H16.9254H16.9205H16.9156H16.9107H16.9058H16.9008H16.8958H16.8908H16.8857H16.8807H16.8756H16.8705H16.8653H16.8602H16.855H16.8498H16.8446H16.8393H16.8341H16.8288H16.8235H16.8181H16.8128H16.8074H16.802H16.7965H16.7911H16.7856H16.7801H16.7746H16.7691H16.7635H16.7579H16.7523H16.7467H16.741H16.7353H16.7297H16.7239H16.7182H16.7124H16.7067H16.7009H16.695H16.6892H16.6833H16.6775H16.6716H16.6656H16.6597H16.6537H16.6477H16.6417H16.6357H16.6296H16.6236H16.6175H16.6114H16.6052H16.5991H16.5929H16.5867H16.5805H16.5743H16.568H16.5618H16.5555H16.5492H16.5429H16.5365H16.5301H16.5238H16.5174H16.5109H16.5045H16.498H16.4916H16.4851H16.4785H16.472H16.4655H16.4589H16.4523H16.4457H16.4391H16.4324H16.4258H16.4191H16.4124H16.4057H16.3989H16.3922H16.3854H16.3786H16.3718H16.365H16.3582H16.3513H16.3444H16.3375H16.3306H16.3237H16.3168H16.3098H16.3028H16.2958H16.2888H16.2818H16.2748H16.2677H16.2606H16.2535H16.2464H16.2393H16.2322H16.225H16.2178H16.2107H16.2035H16.1962H16.189H16.1817H16.1745H16.1672H16.1599H16.1526H16.1453H16.1379H16.1306H16.1232H16.1158H16.1084H16.101H16.0936H16.0861H16.0787H16.0712H16.0637H16.0562H16.0487H16.0411H16.0336H16.026H16.0185H16.0109H16.0033H15.9957H15.988H15.9804H15.9727H15.9651H15.9574H15.9497H15.942H15.9343H15.9265H15.9188H15.911H15.9032H15.8954H15.8876H15.8798H15.872H15.8642H15.8563H15.8485H15.8406H15.8327H15.8248H15.8169H15.809H15.801H15.7931H15.7851H15.7771H15.7692H15.7612H15.7532H15.7451H15.7371H15.7291H15.721H15.713H15.7049H15.6968H15.6887H15.6806H15.6725H15.6643H15.6562H15.648H15.6399H15.6317H15.6235H15.6153H15.6071H15.5989H15.5907H15.5825H15.5742H15.566H15.5577H15.5494H15.5412H15.5329H15.5246H15.5163H15.5079H15.4996H15.4913H15.4829H15.4746H15.4662H15.4578H15.4494H15.441H15.4326H15.4242H15.4158H15.4074H15.399H15.3905H15.3821H15.3736H15.3651H15.3567H15.3482H15.3397H15.3312H15.3227H15.3141H15.3056H15.2971H15.2886H15.28H15.2715H15.2629H15.2543H15.2457H15.2372H15.2286H15.22H15.2114H15.2028H15.1941H15.1855H15.1769H15.1682H15.1596H15.151H15.1423H15.1336H15.125H15.1163H15.1076H15.0989H15.0902H15.0815H15.0728H15.0641H15.0554H15.0467H15.0379H15.0292H15.0205H15.0117H15.003H14.9942H14.9855H14.9767H14.9679H14.9592H14.9504H14.9416H14.9328H14.924H14.9152H14.9064H14.8976H14.8888H14.88H14.8712H14.8624H14.8535H14.8447H14.8359H14.827H14.8182H14.8094H14.8005H14.7917H14.7828H14.7739H14.7651H14.7562H14.7473H14.7385H14.7296H14.7207H14.7118H14.703H14.6941H14.6852H14.6763H14.6674H14.6585H14.6496H14.6407H14.6318H14.6229H14.614H14.6051H14.5962H14.5873H14.5784H14.5695H14.5605H14.5516H14.5427H14.5338H14.5249H14.5159H14.507H14.4981H14.4892H14.4802H14.4713H14.4624H14.4534H14.4445H14.4356H14.4266H14.4177H14.4088H14.3998H14.3909H14.382H14.373H14.3641H14.3552H14.3462H14.3373H14.3284H14.3194H14.3105H14.3016H14.2926H14.2837H14.2748H14.2659H14.2569H14.248H14.2391H14.2301H14.2212H14.2123H14.2034H14.1945H14.1855H14.1766H14.1677H14.1588H14.1499H14.141H14.132H14.1231H14.1142H14.1053H14.0964H14.0875H14.0786H14.0697H14.0608H14.052H14.0431H14.0342H14.0253H14.0164H14.0075H13.9987H13.9898H13.9809H13.9721H13.9632H13.9543H13.9455H13.9366H13.9278H13.9189H13.9101H13.9013H13.8924H13.8836H13.8748H13.866H13.8571H13.8483H13.8395H13.8307H13.8219H13.8131H13.8043H13.7955H13.7868H13.778H13.7692H13.7604H13.7517H13.7429H13.7342H13.7254H13.7167H13.7079H13.6992H13.6905H13.6817H13.673H13.6643H13.6556H13.6469H13.6382H13.6295H13.6208H13.6122H13.6035H13.5948H13.5862H13.5775H13.5689H13.5602H13.5516H13.543H13.5344H13.5258H13.5172H13.5086H13.5H13.4914H13.4828H13.4742H13.4657H13.4571H13.4486H13.44H13.4315H13.423H13.4145H13.406H13.3975H13.389H13.3805H13.372H13.3635H13.3551H13.3466H13.3382H13.3297H13.3213H13.3129H13.3045H13.2961H13.2877H13.2793H13.2709H13.2626H13.2542H13.2459H13.2375H13.2292H13.2209H13.2126H13.2042H13.196H13.1877H13.1794H13.1711H13.1629H13.1546H13.1464H13.1382H13.13H13.1218H13.1136H13.1054H13.0972H13.0891H13.0809H13.0728H13.0646H13.0565H13.0484H13.0403H13.0322H13.0242H13.0161H13.008H13V14.5ZM13 16.5H13.008H13.0161H13.0242H13.0322H13.0403H13.0484H13.0565H13.0646H13.0728H13.0809H13.0891H13.0972H13.1054H13.1136H13.1218H13.13H13.1382H13.1464H13.1546H13.1629H13.1711H13.1794H13.1877H13.196H13.2042H13.2126H13.2209H13.2292H13.2375H13.2459H13.2542H13.2626H13.2709H13.2793H13.2877H13.2961H13.3045H13.3129H13.3213H13.3297H13.3382H13.3466H13.3551H13.3635H13.372H13.3805H13.389H13.3975H13.406H13.4145H13.423H13.4315H13.44H13.4486H13.4571H13.4657H13.4742H13.4828H13.4914H13.5H13.5086H13.5172H13.5258H13.5344H13.543H13.5516H13.5602H13.5689H13.5775H13.5862H13.5948H13.6035H13.6122H13.6208H13.6295H13.6382H13.6469H13.6556H13.6643H13.673H13.6817H13.6905H13.6992H13.7079H13.7167H13.7254H13.7342H13.7429H13.7517H13.7604H13.7692H13.778H13.7868H13.7955H13.8043H13.8131H13.8219H13.8307H13.8395H13.8483H13.8571H13.866H13.8748H13.8836H13.8924H13.9013H13.9101H13.9189H13.9278H13.9366H13.9455H13.9543H13.9632H13.9721H13.9809H13.9898H13.9987H14.0075H14.0164H14.0253H14.0342H14.0431H14.052H14.0608H14.0697H14.0786H14.0875H14.0964H14.1053H14.1142H14.1231H14.132H14.141H14.1499H14.1588H14.1677H14.1766H14.1855H14.1945H14.2034H14.2123H14.2212H14.2301H14.2391H14.248H14.2569H14.2659H14.2748H14.2837H14.2926H14.3016H14.3105H14.3194H14.3284H14.3373H14.3462H14.3552H14.3641H14.373H14.382H14.3909H14.3998H14.4088H14.4177H14.4266H14.4356H14.4445H14.4534H14.4624H14.4713H14.4802H14.4892H14.4981H14.507H14.5159H14.5249H14.5338H14.5427H14.5516H14.5605H14.5695H14.5784H14.5873H14.5962H14.6051H14.614H14.6229H14.6318H14.6407H14.6496H14.6585H14.6674H14.6763H14.6852H14.6941H14.703H14.7118H14.7207H14.7296H14.7385H14.7473H14.7562H14.7651H14.7739H14.7828H14.7917H14.8005H14.8094H14.8182H14.827H14.8359H14.8447H14.8535H14.8624H14.8712H14.88H14.8888H14.8976H14.9064H14.9152H14.924H14.9328H14.9416H14.9504H14.9592H14.9679H14.9767H14.9855H14.9942H15.003H15.0117H15.0205H15.0292H15.0379H15.0467H15.0554H15.0641H15.0728H15.0815H15.0902H15.0989H15.1076H15.1163H15.125H15.1336H15.1423H15.151H15.1596H15.1682H15.1769H15.1855H15.1941H15.2028H15.2114H15.22H15.2286H15.2372H15.2457H15.2543H15.2629H15.2715H15.28H15.2886H15.2971H15.3056H15.3141H15.3227H15.3312H15.3397H15.3482H15.3567H15.3651H15.3736H15.3821H15.3905H15.399H15.4074H15.4158H15.4242H15.4326H15.441H15.4494H15.4578H15.4662H15.4746H15.4829H15.4913H15.4996H15.5079H15.5163H15.5246H15.5329H15.5412H15.5494H15.5577H15.566H15.5742H15.5825H15.5907H15.5989H15.6071H15.6153H15.6235H15.6317H15.6399H15.648H15.6562H15.6643H15.6725H15.6806H15.6887H15.6968H15.7049H15.713H15.721H15.7291H15.7371H15.7451H15.7532H15.7612H15.7692H15.7771H15.7851H15.7931H15.801H15.809H15.8169H15.8248H15.8327H15.8406H15.8485H15.8563H15.8642H15.872H15.8798H15.8876H15.8954H15.9032H15.911H15.9188H15.9265H15.9343H15.942H15.9497H15.9574H15.9651H15.9727H15.9804H15.988H15.9957H16.0033H16.0109H16.0185H16.026H16.0336H16.0411H16.0487H16.0562H16.0637H16.0712H16.0787H16.0861H16.0936H16.101H16.1084H16.1158H16.1232H16.1306H16.1379H16.1453H16.1526H16.1599H16.1672H16.1745H16.1817H16.189H16.1962H16.2035H16.2107H16.2178H16.225H16.2322H16.2393H16.2464H16.2535H16.2606H16.2677H16.2748H16.2818H16.2888H16.2958H16.3028H16.3098H16.3168H16.3237H16.3306H16.3375H16.3444H16.3513H16.3582H16.365H16.3718H16.3786H16.3854H16.3922H16.3989H16.4057H16.4124H16.4191H16.4258H16.4324H16.4391H16.4457H16.4523H16.4589H16.4655H16.472H16.4785H16.4851H16.4916H16.498H16.5045H16.5109H16.5174H16.5238H16.5301H16.5365H16.5429H16.5492H16.5555H16.5618H16.568H16.5743H16.5805H16.5867H16.5929H16.5991H16.6052H16.6114H16.6175H16.6236H16.6296H16.6357H16.6417H16.6477H16.6537H16.6597H16.6656H16.6716H16.6775H16.6833H16.6892H16.695H16.7009H16.7067H16.7124H16.7182H16.7239H16.7297H16.7353H16.741H16.7467H16.7523H16.7579H16.7635H16.7691H16.7746H16.7801H16.7856H16.7911H16.7965H16.802H16.8074H16.8128H16.8181H16.8235H16.8288H16.8341H16.8393H16.8446H16.8498H16.855H16.8602H16.8653H16.8705H16.8756H16.8807H16.8857H16.8908H16.8958H16.9008H16.9058H16.9107H16.9156H16.9205H16.9254H16.9302H16.9351H16.9399H16.9446H16.9494H16.9541H16.9588H16.9635H16.9681H16.9728H16.9774H16.9819H16.9865H16.991H16.9955H17V15.5H16.9955H16.991H16.9865H16.9819H16.9774H16.9728H16.9681H16.9635H16.9588H16.9541H16.9494H16.9446H16.9399H16.9351H16.9302H16.9254H16.9205H16.9156H16.9107H16.9058H16.9008H16.8958H16.8908H16.8857H16.8807H16.8756H16.8705H16.8653H16.8602H16.855H16.8498H16.8446H16.8393H16.8341H16.8288H16.8235H16.8181H16.8128H16.8074H16.802H16.7965H16.7911H16.7856H16.7801H16.7746H16.7691H16.7635H16.7579H16.7523H16.7467H16.741H16.7353H16.7297H16.7239H16.7182H16.7124H16.7067H16.7009H16.695H16.6892H16.6833H16.6775H16.6716H16.6656H16.6597H16.6537H16.6477H16.6417H16.6357H16.6296H16.6236H16.6175H16.6114H16.6052H16.5991H16.5929H16.5867H16.5805H16.5743H16.568H16.5618H16.5555H16.5492H16.5429H16.5365H16.5301H16.5238H16.5174H16.5109H16.5045H16.498H16.4916H16.4851H16.4785H16.472H16.4655H16.4589H16.4523H16.4457H16.4391H16.4324H16.4258H16.4191H16.4124H16.4057H16.3989H16.3922H16.3854H16.3786H16.3718H16.365H16.3582H16.3513H16.3444H16.3375H16.3306H16.3237H16.3168H16.3098H16.3028H16.2958H16.2888H16.2818H16.2748H16.2677H16.2606H16.2535H16.2464H16.2393H16.2322H16.225H16.2178H16.2107H16.2035H16.1962H16.189H16.1817H16.1745H16.1672H16.1599H16.1526H16.1453H16.1379H16.1306H16.1232H16.1158H16.1084H16.101H16.0936H16.0861H16.0787H16.0712H16.0637H16.0562H16.0487H16.0411H16.0336H16.026H16.0185H16.0109H16.0033H15.9957H15.988H15.9804H15.9727H15.9651H15.9574H15.9497H15.942H15.9343H15.9265H15.9188H15.911H15.9032H15.8954H15.8876H15.8798H15.872H15.8642H15.8563H15.8485H15.8406H15.8327H15.8248H15.8169H15.809H15.801H15.7931H15.7851H15.7771H15.7692H15.7612H15.7532H15.7451H15.7371H15.7291H15.721H15.713H15.7049H15.6968H15.6887H15.6806H15.6725H15.6643H15.6562H15.648H15.6399H15.6317H15.6235H15.6153H15.6071H15.5989H15.5907H15.5825H15.5742H15.566H15.5577H15.5494H15.5412H15.5329H15.5246H15.5163H15.5079H15.4996H15.4913H15.4829H15.4746H15.4662H15.4578H15.4494H15.441H15.4326H15.4242H15.4158H15.4074H15.399H15.3905H15.3821H15.3736H15.3651H15.3567H15.3482H15.3397H15.3312H15.3227H15.3141H15.3056H15.2971H15.2886H15.28H15.2715H15.2629H15.2543H15.2457H15.2372H15.2286H15.22H15.2114H15.2028H15.1941H15.1855H15.1769H15.1682H15.1596H15.151H15.1423H15.1336H15.125H15.1163H15.1076H15.0989H15.0902H15.0815H15.0728H15.0641H15.0554H15.0467H15.0379H15.0292H15.0205H15.0117H15.003H14.9942H14.9855H14.9767H14.9679H14.9592H14.9504H14.9416H14.9328H14.924H14.9152H14.9064H14.8976H14.8888H14.88H14.8712H14.8624H14.8535H14.8447H14.8359H14.827H14.8182H14.8094H14.8005H14.7917H14.7828H14.7739H14.7651H14.7562H14.7473H14.7385H14.7296H14.7207H14.7118H14.703H14.6941H14.6852H14.6763H14.6674H14.6585H14.6496H14.6407H14.6318H14.6229H14.614H14.6051H14.5962H14.5873H14.5784H14.5695H14.5605H14.5516H14.5427H14.5338H14.5249H14.5159H14.507H14.4981H14.4892H14.4802H14.4713H14.4624H14.4534H14.4445H14.4356H14.4266H14.4177H14.4088H14.3998H14.3909H14.382H14.373H14.3641H14.3552H14.3462H14.3373H14.3284H14.3194H14.3105H14.3016H14.2926H14.2837H14.2748H14.2659H14.2569H14.248H14.2391H14.2301H14.2212H14.2123H14.2034H14.1945H14.1855H14.1766H14.1677H14.1588H14.1499H14.141H14.132H14.1231H14.1142H14.1053H14.0964H14.0875H14.0786H14.0697H14.0608H14.052H14.0431H14.0342H14.0253H14.0164H14.0075H13.9987H13.9898H13.9809H13.9721H13.9632H13.9543H13.9455H13.9366H13.9278H13.9189H13.9101H13.9013H13.8924H13.8836H13.8748H13.866H13.8571H13.8483H13.8395H13.8307H13.8219H13.8131H13.8043H13.7955H13.7868H13.778H13.7692H13.7604H13.7517H13.7429H13.7342H13.7254H13.7167H13.7079H13.6992H13.6905H13.6817H13.673H13.6643H13.6556H13.6469H13.6382H13.6295H13.6208H13.6122H13.6035H13.5948H13.5862H13.5775H13.5689H13.5602H13.5516H13.543H13.5344H13.5258H13.5172H13.5086H13.5H13.4914H13.4828H13.4742H13.4657H13.4571H13.4486H13.44H13.4315H13.423H13.4145H13.406H13.3975H13.389H13.3805H13.372H13.3635H13.3551H13.3466H13.3382H13.3297H13.3213H13.3129H13.3045H13.2961H13.2877H13.2793H13.2709H13.2626H13.2542H13.2459H13.2375H13.2292H13.2209H13.2126H13.2042H13.196H13.1877H13.1794H13.1711H13.1629H13.1546H13.1464H13.1382H13.13H13.1218H13.1136H13.1054H13.0972H13.0891H13.0809H13.0728H13.0646H13.0565H13.0484H13.0403H13.0322H13.0242H13.0161H13.008H13V16.5Z" fill="#3D3F46"/>
<path fill-rule="evenodd" clip-rule="evenodd" d="M8.5 7V7.00804V7.01609V7.02416V7.03223V7.04032V7.04842V7.05652V7.06464V7.07277V7.08091V7.08906V7.09722V7.1054V7.11358V7.12177V7.12997V7.13819V7.14641V7.15464V7.16289V7.17114V7.1794V7.18767V7.19596V7.20425V7.21255V7.22086V7.22918V7.23751V7.24585V7.2542V7.26256V7.27092V7.2793V7.28768V7.29607V7.30448V7.31289V7.32131V7.32973V7.33817V7.34661V7.35507V7.36353V7.372V7.38048V7.38896V7.39745V7.40596V7.41446V7.42298V7.43151V7.44004V7.44858V7.45713V7.46568V7.47424V7.48281V7.49139V7.49997V7.50856V7.51716V7.52576V7.53438V7.54299V7.55162V7.56025V7.56889V7.57753V7.58618V7.59484V7.6035V7.61217V7.62085V7.62953V7.63822V7.64691V7.65561V7.66432V7.67303V7.68174V7.69046V7.69919V7.70792V7.71666V7.72541V7.73415V7.74291V7.75167V7.76043V7.7692V7.77797V7.78675V7.79553V7.80432V7.81311V7.82191V7.83071V7.83952V7.84833V7.85714V7.86596V7.87478V7.88361V7.89243V7.90127V7.91011V7.91895V7.92779V7.93664V7.94549V7.95435V7.9632V7.97207V7.98093V7.9898V7.99867V8.00754V8.01642V8.0253V8.03418V8.04307V8.05195V8.06084V8.06974V8.07863V8.08753V8.09643V8.10533V8.11423V8.12314V8.13205V8.14096V8.14987V8.15878V8.1677V8.17661V8.18553V8.19445V8.20337V8.2123V8.22122V8.23014V8.23907V8.248V8.25692V8.26585V8.27478V8.28371V8.29264V8.30158V8.31051V8.31944V8.32837V8.33731V8.34624V8.35517V8.36411V8.37304V8.38198V8.39091V8.39984V8.40878V8.41771V8.42664V8.43557V8.44451V8.45344V8.46237V8.4713V8.48022V8.48915V8.49808V8.5H8.49808H8.48915H8.48022H8.4713H8.46237H8.45344H8.44451H8.43557H8.42664H8.41771H8.40878H8.39984H8.39091H8.38198H8.37304H8.36411H8.35517H8.34624H8.33731H8.32837H8.31944H8.31051H8.30158H8.29264H8.28371H8.27478H8.26585H8.25692H8.248H8.23907H8.23014H8.22122H8.2123H8.20337H8.19445H8.18553H8.17661H8.1677H8.15878H8.14987H8.14096H8.13205H8.12314H8.11423H8.10533H8.09643H8.08753H8.07863H8.06974H8.06084H8.05195H8.04307H8.03418H8.0253H8.01642H8.00754H7.99867H7.9898H7.98093H7.97207H7.9632H7.95435H7.94549H7.93664H7.92779H7.91895H7.91011H7.90127H7.89243H7.88361H7.87478H7.86596H7.85714H7.84833H7.83952H7.83071H7.82191H7.81311H7.80432H7.79553H7.78675H7.77797H7.7692H7.76043H7.75167H7.74291H7.73415H7.72541H7.71666H7.70792H7.69919H7.69046H7.68174H7.67303H7.66432H7.65561H7.64691H7.63822H7.62953H7.62085H7.61217H7.6035H7.59484H7.58618H7.57753H7.56889H7.56025H7.55162H7.54299H7.53438H7.52576H7.51716H7.50856H7.49997H7.49139H7.48281H7.47424H7.46568H7.45713H7.44858H7.44004H7.43151H7.42298H7.41446H7.40596H7.39745H7.38896H7.38048H7.372H7.36353H7.35507H7.34661H7.33817H7.32973H7.32131H7.31289H7.30448H7.29607H7.28768H7.2793H7.27092H7.26256H7.2542H7.24585H7.23751H7.22918H7.22086H7.21255H7.20425H7.19596H7.18767H7.1794H7.17114H7.16289H7.15464H7.14641H7.13819H7.12997H7.12177H7.11358H7.1054H7.09722H7.08906H7.08091H7.07277H7.06464H7.05652H7.04842H7.04032H7.03223H7.02416H7.01609H7.00804H7V9.5H7.00804H7.01609H7.02416H7.03223H7.04032H7.04842H7.05652H7.06464H7.07277H7.08091H7.08906H7.09722H7.1054H7.11358H7.12177H7.12997H7.13819H7.14641H7.15464H7.16289H7.17114H7.1794H7.18767H7.19596H7.20425H7.21255H7.22086H7.22918H7.23751H7.24585H7.2542H7.26256H7.27092H7.2793H7.28768H7.29607H7.30448H7.31289H7.32131H7.32973H7.33817H7.34661H7.35507H7.36353H7.372H7.38048H7.38896H7.39745H7.40596H7.41446H7.42298H7.43151H7.44004H7.44858H7.45713H7.46568H7.47424H7.48281H7.49139H7.49997H7.50856H7.51716H7.52576H7.53438H7.54299H7.55162H7.56025H7.56889H7.57753H7.58618H7.59484H7.6035H7.61217H7.62085H7.62953H7.63822H7.64691H7.65561H7.66432H7.67303H7.68174H7.69046H7.69919H7.70792H7.71666H7.72541H7.73415H7.74291H7.75167H7.76043H7.7692H7.77797H7.78675H7.79553H7.80432H7.81311H7.82191H7.83071H7.83952H7.84833H7.85714H7.86596H7.87478H7.88361H7.89243H7.90127H7.91011H7.91895H7.92779H7.93664H7.94549H7.95435H7.9632H7.97207H7.98093H7.9898H7.99867H8.00754H8.01642H8.0253H8.03418H8.04307H8.05195H8.06084H8.06974H8.07863H8.08753H8.09643H8.10533H8.11423H8.12314H8.13205H8.14096H8.14987H8.15878H8.1677H8.17661H8.18553H8.19445H8.20337H8.2123H8.22122H8.23014H8.23907H8.248H8.25692H8.26585H8.27478H8.28371H8.29264H8.30158H8.31051H8.31944H8.32837H8.33731H8.34624H8.35517H8.36411H8.37304H8.38198H8.39091H8.39984H8.40878H8.41771H8.42664H8.43557H8.44451H8.45344H8.46237H8.4713H8.48022H8.48915H8.49808H8.5V9.50794V9.51626V9.52457V9.53287V9.54116V9.54944V9.55772V9.56598V9.57423V9.58247V9.59071V9.59893V9.60714V9.61534V9.62354V9.63172V9.63989V9.64805V9.6562V9.66434V9.67247V9.68059V9.68869V9.69679V9.70488V9.71295V9.72101V9.72907V9.73711V9.74514V9.75315V9.76116V9.76916V9.77714V9.78511V9.79307V9.80102V9.80896V9.81688V9.82479V9.83269V9.84058V9.84846V9.85632V9.86417V9.87201V9.87983V9.88765V9.89545V9.90323V9.91101V9.91877V9.92652V9.93426V9.94198V9.94969V9.95739V9.96507V9.97274V9.98039V9.98804V9.99567V10.0033V10.0109V10.0185V10.026V10.0336V10.0411V10.0487V10.0562V10.0637V10.0712V10.0787V10.0861V10.0936V10.101V10.1084V10.1158V10.1232V10.1306V10.1379V10.1453V10.1526V10.1599V10.1672V10.1745V10.1817V10.189V10.1962V10.2035V10.2107V10.2178V10.225V10.2322V10.2393V10.2464V10.2535V10.2606V10.2677V10.2748V10.2818V10.2888V10.2958V10.3028V10.3098V10.3168V10.3237V10.3306V10.3375V10.3444V10.3513V10.3582V10.365V10.3718V10.3786V10.3854V10.3922V10.3989V10.4057V10.4124V10.4191V10.4258V10.4324V10.4391V10.4457V10.4523V10.4589V10.4655V10.472V10.4785V10.4851V10.4916V10.498V10.5045V10.5109V10.5174V10.5238V10.5301V10.5365V10.5429V10.5492V10.5555V10.5618V10.568V10.5743V10.5805V10.5867V10.5929V10.5991V10.6052V10.6114V10.6175V10.6236V10.6296V10.6357V10.6417V10.6477V10.6537V10.6597V10.6656V10.6716V10.6775V10.6833V10.6892V10.695V10.7009V10.7067V10.7124V10.7182V10.7239V10.7297V10.7353V10.741V10.7467V10.7523V10.7579V10.7635V10.7691V10.7746V10.7801V10.7856V10.7911V10.7965V10.802V10.8074V10.8128V10.8181V10.8235V10.8288V10.8341V10.8393V10.8446V10.8498V10.855V10.8602V10.8653V10.8705V10.8756V10.8807V10.8857V10.8908V10.8958V10.9008V10.9058V10.9107V10.9156V10.9205V10.9254V10.9302V10.9351V10.9399V10.9446V10.9494V10.9541V10.9588V10.9635V10.9681V10.9728V10.9774V10.9819V10.9865V10.991V10.9955V11H9.5V10.9955V10.991V10.9865V10.9819V10.9774V10.9728V10.9681V10.9635V10.9588V10.9541V10.9494V10.9446V10.9399V10.9351V10.9302V10.9254V10.9205V10.9156V10.9107V10.9058V10.9008V10.8958V10.8908V10.8857V10.8807V10.8756V10.8705V10.8653V10.8602V10.855V10.8498V10.8446V10.8393V10.8341V10.8288V10.8235V10.8181V10.8128V10.8074V10.802V10.7965V10.7911V10.7856V10.7801V10.7746V10.7691V10.7635V10.7579V10.7523V10.7467V10.741V10.7353V10.7297V10.7239V10.7182V10.7124V10.7067V10.7009V10.695V10.6892V10.6833V10.6775V10.6716V10.6656V10.6597V10.6537V10.6477V10.6417V10.6357V10.6296V10.6236V10.6175V10.6114V10.6052V10.5991V10.5929V10.5867V10.5805V10.5743V10.568V10.5618V10.5555V10.5492V10.5429V10.5365V10.5301V10.5238V10.5174V10.5109V10.5045V10.498V10.4916V10.4851V10.4785V10.472V10.4655V10.4589V10.4523V10.4457V10.4391V10.4324V10.4258V10.4191V10.4124V10.4057V10.3989V10.3922V10.3854V10.3786V10.3718V10.365V10.3582V10.3513V10.3444V10.3375V10.3306V10.3237V10.3168V10.3098V10.3028V10.2958V10.2888V10.2818V10.2748V10.2677V10.2606V10.2535V10.2464V10.2393V10.2322V10.225V10.2178V10.2107V10.2035V10.1962V10.189V10.1817V10.1745V10.1672V10.1599V10.1526V10.1453V10.1379V10.1306V10.1232V10.1158V10.1084V10.101V10.0936V10.0861V10.0787V10.0712V10.0637V10.0562V10.0487V10.0411V10.0336V10.026V10.0185V10.0109V10.0033V9.99567V9.98804V9.98039V9.97274V9.96507V9.95739V9.94969V9.94198V9.93426V9.92652V9.91877V9.91101V9.90323V9.89545V9.88765V9.87983V9.87201V9.86417V9.85632V9.84846V9.84058V9.83269V9.82479V9.81688V9.80896V9.80102V9.79307V9.78511V9.77714V9.76916V9.76116V9.75315V9.74514V9.73711V9.72907V9.72101V9.71295V9.70488V9.69679V9.68869V9.68059V9.67247V9.66434V9.6562V9.64805V9.63989V9.63172V9.62354V9.61534V9.60714V9.59893V9.59071V9.58247V9.57423V9.56598V9.55772V9.54944V9.54116V9.53287V9.52457V9.51626V9.50794V9.5H9.50794H9.51626H9.52457H9.53287H9.54116H9.54944H9.55772H9.56598H9.57423H9.58247H9.59071H9.59893H9.60714H9.61534H9.62354H9.63172H9.63989H9.64805H9.6562H9.66434H9.67247H9.68059H9.68869H9.69679H9.70488H9.71295H9.72101H9.72907H9.73711H9.74514H9.75315H9.76116H9.76916H9.77714H9.78511H9.79307H9.80102H9.80896H9.81688H9.82479H9.83269H9.84058H9.84846H9.85632H9.86417H9.87201H9.87983H9.88765H9.89545H9.90323H9.91101H9.91877H9.92652H9.93426H9.94198H9.94969H9.95739H9.96507H9.97274H9.98039H9.98804H9.99567H10.0033H10.0109H10.0185H10.026H10.0336H10.0411H10.0487H10.0562H10.0637H10.0712H10.0787H10.0861H10.0936H10.101H10.1084H10.1158H10.1232H10.1306H10.1379H10.1453H10.1526H10.1599H10.1672H10.1745H10.1817H10.189H10.1962H10.2035H10.2107H10.2178H10.225H10.2322H10.2393H10.2464H10.2535H10.2606H10.2677H10.2748H10.2818H10.2888H10.2958H10.3028H10.3098H10.3168H10.3237H10.3306H10.3375H10.3444H10.3513H10.3582H10.365H10.3718H10.3786H10.3854H10.3922H10.3989H10.4057H10.4124H10.4191H10.4258H10.4324H10.4391H10.4457H10.4523H10.4589H10.4655H10.472H10.4785H10.4851H10.4916H10.498H10.5045H10.5109H10.5174H10.5238H10.5301H10.5365H10.5429H10.5492H10.5555H10.5618H10.568H10.5743H10.5805H10.5867H10.5929H10.5991H10.6052H10.6114H10.6175H10.6236H10.6296H10.6357H10.6417H10.6477H10.6537H10.6597H10.6656H10.6716H10.6775H10.6833H10.6892H10.695H10.7009H10.7067H10.7124H10.7182H10.7239H10.7297H10.7353H10.741H10.7467H10.7523H10.7579H10.7635H10.7691H10.7746H10.7801H10.7856H10.7911H10.7965H10.802H10.8074H10.8128H10.8181H10.8235H10.8288H10.8341H10.8393H10.8446H10.8498H10.855H10.8602H10.8653H10.8705H10.8756H10.8807H10.8857H10.8908H10.8958H10.9008H10.9058H10.9107H10.9156H10.9205H10.9254H10.9302H10.9351H10.9399H10.9446H10.9494H10.9541H10.9588H10.9635H10.9681H10.9728H10.9774H10.9819H10.9865H10.991H10.9955H11V8.5H10.9955H10.991H10.9865H10.9819H10.9774H10.9728H10.9681H10.9635H10.9588H10.9541H10.9494H10.9446H10.9399H10.9351H10.9302H10.9254H10.9205H10.9156H10.9107H10.9058H10.9008H10.8958H10.8908H10.8857H10.8807H10.8756H10.8705H10.8653H10.8602H10.855H10.8498H10.8446H10.8393H10.8341H10.8288H10.8235H10.8181H10.8128H10.8074H10.802H10.7965H10.7911H10.7856H10.7801H10.7746H10.7691H10.7635H10.7579H10.7523H10.7467H10.741H10.7353H10.7297H10.7239H10.7182H10.7124H10.7067H10.7009H10.695H10.6892H10.6833H10.6775H10.6716H10.6656H10.6597H10.6537H10.6477H10.6417H10.6357H10.6296H10.6236H10.6175H10.6114H10.6052H10.5991H10.5929H10.5867H10.5805H10.5743H10.568H10.5618H10.5555H10.5492H10.5429H10.5365H10.5301H10.5238H10.5174H10.5109H10.5045H10.498H10.4916H10.4851H10.4785H10.472H10.4655H10.4589H10.4523H10.4457H10.4391H10.4324H10.4258H10.4191H10.4124H10.4057H10.3989H10.3922H10.3854H10.3786H10.3718H10.365H10.3582H10.3513H10.3444H10.3375H10.3306H10.3237H10.3168H10.3098H10.3028H10.2958H10.2888H10.2818H10.2748H10.2677H10.2606H10.2535H10.2464H10.2393H10.2322H10.225H10.2178H10.2107H10.2035H10.1962H10.189H10.1817H10.1745H10.1672H10.1599H10.1526H10.1453H10.1379H10.1306H10.1232H10.1158H10.1084H10.101H10.0936H10.0861H10.0787H10.0712H10.0637H10.0562H10.0487H10.0411H10.0336H10.026H10.0185H10.0109H10.0033H9.99567H9.98804H9.98039H9.97274H9.96507H9.95739H9.94969H9.94198H9.93426H9.92652H9.91877H9.91101H9.90323H9.89545H9.88765H9.87983H9.87201H9.86417H9.85632H9.84846H9.84058H9.83269H9.82479H9.81688H9.80896H9.80102H9.79307H9.78511H9.77714H9.76916H9.76116H9.75315H9.74514H9.73711H9.72907H9.72101H9.71295H9.70488H9.69679H9.68869H9.68059H9.67247H9.66434H9.6562H9.64805H9.63989H9.63172H9.62354H9.61534H9.60714H9.59893H9.59071H9.58247H9.57423H9.56598H9.55772H9.54944H9.54116H9.53287H9.52457H9.51626H9.50794H9.5V8.49808V8.48915V8.48022V8.4713V8.46237V8.45344V8.44451V8.43557V8.42664V8.41771V8.40878V8.39984V8.39091V8.38198V8.37304V8.36411V8.35517V8.34624V8.33731V8.32837V8.31944V8.31051V8.30158V8.29264V8.28371V8.27478V8.26585V8.25692V8.248V8.23907V8.23014V8.22122V8.2123V8.20337V8.19445V8.18553V8.17661V8.1677V8.15878V8.14987V8.14096V8.13205V8.12314V8.11423V8.10533V8.09643V8.08753V8.07863V8.06974V8.06084V8.05195V8.04307V8.03418V8.0253V8.01642V8.00754V7.99867V7.9898V7.98093V7.97207V7.9632V7.95435V7.94549V7.93664V7.92779V7.91895V7.91011V7.90127V7.89243V7.88361V7.87478V7.86596V7.85714V7.84833V7.83952V7.83071V7.82191V7.81311V7.80432V7.79553V7.78675V7.77797V7.7692V7.76043V7.75167V7.74291V7.73415V7.72541V7.71666V7.70792V7.69919V7.69046V7.68174V7.67303V7.66432V7.65561V7.64691V7.63822V7.62953V7.62085V7.61217V7.6035V7.59484V7.58618V7.57753V7.56889V7.56025V7.55162V7.54299V7.53438V7.52576V7.51716V7.50856V7.49997V7.49139V7.48281V7.47424V7.46568V7.45713V7.44858V7.44004V7.43151V7.42298V7.41446V7.40596V7.39745V7.38896V7.38048V7.372V7.36353V7.35507V7.34661V7.33817V7.32973V7.32131V7.31289V7.30448V7.29607V7.28768V7.2793V7.27092V7.26256V7.2542V7.24585V7.23751V7.22918V7.22086V7.21255V7.20425V7.19596V7.18767V7.1794V7.17114V7.16289V7.15464V7.14641V7.13819V7.12997V7.12177V7.11358V7.1054V7.09722V7.08906V7.08091V7.07277V7.06464V7.05652V7.04842V7.04032V7.03223V7.02416V7.01609V7.00804V7H8.5Z" fill="#3D3F46"/>
</svg>
