<svg width="24" height="24" viewBox="0 0 24 24" fill="none" xmlns="http://www.w3.org/2000/svg">
<g id="icon/common/line/24/cargo">
<path id="Container" d="M2 20H22M20 20V10.5477C20 9.53181 19.8223 8.50952 19.2369 7.67922C18.1905 6.19503 15.9715 4 12 4C8.02848 4 5.80951 6.19503 4.76307 7.67922C4.17766 8.50952 4 9.5318 4 10.5477V20H20Z" stroke="#3D3F46" stroke-linecap="square"/>
<path id="Vector 94" d="M17.5 5.5C17.5 5.22386 17.2761 5 17 5C16.7239 5 16.5 5.22386 16.5 5.5H17.5ZM16.5 5.5V20H17.5V5.5H16.5Z" fill="#3D3F46"/>
<path id="Vector 95" d="M13 4V20" stroke="#3D3F46"/>
<path id="Vector 96" d="M13 8H17" stroke="#3D3F46"/>
<path id="Vector 97" d="M13 12H17" stroke="#3D3F46"/>
<path id="Vector 98" d="M13 16H17" stroke="#3D3F46"/>
</g>
</svg>
