<svg width="24" height="24" viewBox="0 0 24 24" fill="none" xmlns="http://www.w3.org/2000/svg">
<g id="icon/common/fill/nav/contract">
<path id="Vector 125" d="M20 7L15 2H14V8H20V7Z" fill="#1E3A64"/>
<path id="Rectangle 36321" d="M4 5C4 3.34315 5.34315 2 7 2H15V6C15 6.55228 15.4477 7 16 7H20V19C20 20.6569 18.6569 22 17 22H7C5.34315 22 4 20.6569 4 19V5Z" fill="#23A24F"/>
<path id="Vector 126" d="M11 6.5H11.5V5.5H11V6.5ZM7 6.5H11V5.5H7V6.5Z" fill="white"/>
<path id="Vector 127" d="M15 9.5H15.5V8.5H15V9.5ZM7 9.5H15V8.5H7V9.5Z" fill="white"/>
<path id="Rectangle 36322" d="M20.1697 5.22873C20.6449 4.55012 21.5802 4.3852 22.2588 4.86036C22.9374 5.33553 23.1023 6.27085 22.6272 6.94946L17.0985 14.8452C16.9976 14.9893 16.8606 15.1042 16.7011 15.1784L14.3854 16.2556C14.3157 16.288 14.237 16.2329 14.2436 16.1563L14.4639 13.6118C14.4791 13.4366 14.5402 13.2686 14.641 13.1245L20.1697 5.22873Z" fill="#FFC61A"/>
<path id="Vector 129" d="M8 18C8.00579 17.5014 8.07027 16.9729 8.20676 16.4972C8.54889 15.305 9.41645 14.4202 10.5133 14.1093C11.2461 13.9016 12.3421 13.9601 12.9374 14.546C13.371 14.9726 13.2185 15.5002 12.9624 15.9779C12.7011 16.4651 12.3234 16.8738 11.9089 17.2034C11.6192 17.4338 11.2622 17.6714 10.8894 17.644C10.3433 17.6038 11.1642 16.8741 11.3243 16.7785C11.4882 16.6807 13.0372 15.9859 13.0372 16.4579C13.0372 16.6867 12.7826 17.2151 13.2137 17.0421C13.2802 17.0154 13.5553 16.7875 13.6076 16.8395C13.7206 16.9517 13.9434 16.8841 14.096 16.8591C14.3924 16.8107 14.6705 16.6484 14.8482 16.3831C14.8691 16.3519 15.0321 16.0402 14.9943 16.1235" stroke="white" stroke-linecap="round"/>
</g>
</svg>
