<svg width="24" height="24" viewBox="0 0 24 24" fill="none" xmlns="http://www.w3.org/2000/svg">
<g id="icon/common/fill/nav/document">
<path id="Rectangle 36324" d="M4 5.5C4 4.39543 4.89543 3.5 6 3.5H18C19.1046 3.5 20 4.39543 20 5.5V9.5C20 10.6046 19.1046 11.5 18 11.5H6C4.89543 11.5 4 10.6046 4 9.5V5.5Z" fill="#4567FF"/>
<path id="Rectangle 36323" d="M4 8.5C4 7.39543 4.89543 6.5 6 6.5H18C19.1046 6.5 20 7.39543 20 8.5V12.5C20 13.6046 19.1046 14.5 18 14.5H6C4.89543 14.5 4 13.6046 4 12.5V8.5Z" fill="#FFBF00"/>
<path id="Subtract" d="M10.063 9.5H5C3.89543 9.5 3 10.3954 3 11.5V18.5C3 19.6046 3.89543 20.5 5 20.5H19C20.1046 20.5 21 19.6046 21 18.5V11.5C21 10.3954 20.1046 9.5 19 9.5H13.937C13.715 10.3626 12.9319 11 12 11C11.0681 11 10.285 10.3626 10.063 9.5Z" fill="#16B283"/>
</g>
</svg>
