<svg width="24" height="24" viewBox="0 0 24 24" fill="none" xmlns="http://www.w3.org/2000/svg">
<g id="icon/common/fill/nav/equipment">
<path id="Ellipse 873" d="M12 4C7.02944 4 3 8.23091 3 13.45C3 13.9084 3.03108 15.5591 3.09114 16H20.9089C20.9689 15.5591 21 13.9084 21 13.45C21 8.23091 16.9706 4 12 4Z" fill="#FFBF1D"/>
<ellipse id="Ellipse 874" cx="12" cy="16.5" rx="10" ry="5.5" fill="#F68C00"/>
<ellipse id="Ellipse 875" cx="12" cy="16.5" rx="9" ry="4.5" fill="#553F34"/>
<path id="Rectangle 36319" d="M7.05093 10.8981C7.14769 10.7046 7.30586 10.5491 7.51224 10.4841C8.0661 10.3097 9.41371 10 12 10C14.5863 10 15.9339 10.3097 16.4878 10.4841C16.6941 10.5491 16.8523 10.7046 16.9491 10.8981L17.2651 11.5303C17.3545 11.7089 17.472 11.872 17.6132 12.0132C17.7834 12.1834 17.7018 12.4683 17.4655 12.5141C16.5672 12.6881 14.5955 13 12 13C9.4045 13 7.43276 12.6881 6.5345 12.5141C6.29817 12.4683 6.21656 12.1834 6.38678 12.0132C6.528 11.872 6.64554 11.7089 6.73485 11.5303L7.05093 10.8981Z" fill="#F68C00"/>
<path id="Rectangle 36320" d="M11 3.5C11 2.94772 11.4477 2.5 12 2.5C12.5523 2.5 13 2.94772 13 3.5V5.5H11V3.5Z" fill="#FF8D00"/>
<circle id="Ellipse 876" cx="12" cy="7" r="2" fill="#109950"/>
<path id="Vector 123" d="M12 6V8" stroke="white"/>
<path id="Vector 124" d="M13 7H11" stroke="white"/>
</g>
</svg>
