<svg width="24" height="24" viewBox="0 0 24 24" fill="none" xmlns="http://www.w3.org/2000/svg">
<g id="icon/common/line/24/handover">
<path id="Rectangle 36296" d="M7.38462 21H19C20.6569 21 22 19.6569 22 18V5C22 3.89543 21.1046 3 20 3H15.6562C14.6254 3 13.6668 3.52924 13.1175 4.40156L12.8825 4.77491C12.3332 5.64723 11.3746 6.17647 10.3438 6.17647H4.85294C3.82959 6.17647 3 7.00606 3 8.02941V8.02941V9.75" stroke="#3D3F46"/>
<path id="Rectangle 36295" d="M2.36723 11.3135C2.17446 10.0991 3.11288 9 4.3425 9H8.92258C9.94938 9 10.9049 8.47486 11.4552 7.60802L11.5924 7.39198C12.1428 6.52514 13.0982 6 14.125 6H18.3331C19.3403 6 20.1903 6.74892 20.3172 7.74805L21.5711 17.6221C21.7987 19.4145 20.4018 21 18.595 21H6.46613C4.99084 21 3.7345 19.9274 3.50322 18.4703L2.36723 11.3135Z" stroke="#3D3F46"/>
<path id="Vector 119" d="M9 14L11.1818 16L15 12" stroke="#3D3F46" stroke-linejoin="round"/>
</g>
</svg>
