<svg width="24" height="24" viewBox="0 0 24 24" fill="none" xmlns="http://www.w3.org/2000/svg">
<g id="icon/common/fill/nav/inventory">
<path id="Vector 120" d="M2 21H22" stroke="#4651B4" stroke-width="2" stroke-linejoin="round"/>
<path id="Container" d="M4 10.5477C4 9.5318 4.17766 8.50952 4.76307 7.67922C5.80951 6.19503 8.02848 4 12 4C15.9715 4 18.1905 6.19503 19.2369 7.67922C19.8223 8.50952 20 9.53181 20 10.5477V20H4V10.5477Z" fill="#96ADFF"/>
<path id="Vector 136" d="M12 13.5002C8.8 11.5002 5.33333 11.6668 4 12.5002V20.0002H20V12.5002C17.5 14.0002 14 14.7502 12 13.5002Z" fill="#3D6AFF"/>
<path id="Rectangle 6" opacity="0.9" d="M12 9L14.2847 12.5223C15.1888 13.9161 14.645 15.7877 13.1347 16.4799C12.4143 16.8101 11.5857 16.8101 10.8653 16.4799C9.35502 15.7877 8.81115 13.9161 9.71526 12.5223L12 9Z" fill="#FFC916"/>
</g>
</svg>
