<svg width="200" height="64" viewBox="0 0 200 64" fill="none" xmlns="http://www.w3.org/2000/svg">
<g id="_&#235;&#160;&#136;&#236;&#157;&#180;&#236;&#150;&#180;_1" clip-path="url(#clip0_629_4708)">
<g id="Group">
<path id="Vector" d="M121.574 0.0323355L111.522 0H109.205C110.569 0 111.514 1.01857 111.514 2.0048C111.514 2.0048 111.514 2.0048 111.522 2.0048V24.5265C111.49 25.5531 110.497 26.6121 109.067 26.6121H121.421C129.35 26.6121 134.219 20.8402 134.219 13.104C134.219 5.36769 129.164 0.0323355 121.574 0.0323355ZM121.179 22.554H116.471V6.03057C116.455 5.05242 115.519 4.05002 114.162 4.05002H117.432H121.195C126.799 4.05002 129.1 8.51231 129.1 13.1363C129.1 18.5606 126.621 22.5621 121.171 22.5621L121.179 22.554Z" fill="white"/>
<path id="Vector_2" d="M51.5461 0.0323486H46.3463C44.1824 4.00961 40.8316 10.1938 39.6931 12.7887C38.4174 10.1048 35.3088 4.1147 33.1448 0.0323486H26.1848C26.7419 0.0323486 27.2264 0.339536 27.614 0.711394C27.945 1.03475 28.2034 1.41469 28.4537 1.80272C28.6232 2.06948 36.8994 17.2106 36.9559 17.3076L36.9801 26.6444H44.3358C44.3358 26.6444 44.3116 26.6444 44.2954 26.6444C42.947 26.6283 41.9135 25.44 41.9135 24.098V17.1136L51.5461 0.0323486Z" fill="white"/>
<path id="Vector_3" d="M144.15 0.0323486H141.324C141.332 0.0323486 141.348 0.0323486 141.356 0.0323486C142.737 0.0485164 143.633 1.52786 143.181 2.83745L134.994 26.604H139.871C139.871 26.604 140.694 24.0414 141.784 20.6462C141.784 20.6462 141.784 20.6462 141.776 20.6462C142.043 19.9187 141.356 18.6414 139.992 18.6414H142.422H151.877C153.331 22.9905 154.55 26.604 154.55 26.604H159.766L150.335 0.0323486H144.158H144.15ZM143.674 14.7369C145.208 9.91892 146.685 5.21411 146.976 4.09854H147.113C147.396 5.1171 148.954 9.87042 150.577 14.7369H143.666H143.674Z" fill="white"/>
<path id="Vector_4" d="M26.2495 26.6606C24.9415 26.6525 23.8837 25.5855 23.8837 24.2759V0.0323486H16.625C17.9895 0.0323486 18.9342 1.05092 18.9342 2.03715V10.7839H7.25071V0.0323486H0C1.36455 0.0323486 2.30925 1.05092 2.30925 2.02906V26.604H2.35769L2.30925 26.6606H9.71336C8.27614 26.6606 7.283 25.6016 7.25878 24.5669V16.863C7.24263 15.8929 6.30602 14.8905 4.94954 14.8905H7.25878H18.9423V26.5636L18.8535 26.6687H26.2576L26.2495 26.6606Z" fill="white"/>
<path id="Vector_5" d="M105.539 0.0323486H98.6356C100.089 0.0323486 101.098 1.12367 101.098 2.16649V6.08717C101.098 6.08717 101.098 17.3157 101.098 20.622C99.7983 17.7441 93.1773 6.04675 89.7215 0.0323486H81.179C82.5435 0.0323486 83.4882 1.05092 83.4882 2.03715V26.6121H83.5366L83.4882 26.6687H90.5451C89.0918 26.6687 88.034 25.5935 88.034 24.5507C88.034 24.5507 88.034 7.76861 88.034 5.18986H88.0986C89.5278 8.20514 96.6735 21.2606 99.7256 26.6121H105.62V0.0323486H105.531H105.539Z" fill="white"/>
<path id="Vector_6" d="M72.5555 0.0323486H70.0929C70.0929 0.0323486 70.1171 0.0323486 70.1332 0.0323486C71.4736 0.0485164 72.4909 1.25301 72.4909 2.59494V15.6746C72.4909 20.913 70.1898 22.7076 66.6936 22.7076C63.6657 22.7076 60.7913 21.1393 60.7913 15.6746V0.0323486H53.5164C54.8809 0.0323486 55.8256 1.05092 55.8256 2.03715V15.5857C55.8256 24.1627 60.8236 26.6525 66.6209 26.6525C72.4183 26.6525 77.4485 24.3001 77.4485 15.4321V0.0323486H72.5555Z" fill="white"/>
<path id="Vector_7" d="M168.914 24.4861V20.6462H168.906V0.0323486H164.166H162.64C163.537 0.0323486 164.158 0.70331 164.166 1.35002V26.5959H171.377C169.923 26.604 168.914 25.537 168.914 24.4941V24.4861Z" fill="white"/>
</g>
<g id="Group_2">
<path id="Vector_8" d="M12.499 37.3879C4.56197 37.3879 0 43.2002 0 50.6778C0 58.1553 4.239 63.9676 12.1599 63.9676C20.0807 63.9676 24.6508 57.735 24.6508 50.5727C24.6508 42.7475 19.9516 37.396 12.499 37.396V37.3879ZM12.3537 59.9742C7.44449 59.9742 5.01413 55.7868 5.01413 50.5646C5.01413 45.3424 7.22648 41.3813 12.2971 41.3813C17.3678 41.3813 19.6367 45.5203 19.6367 50.6373C19.6367 55.7544 17.6665 59.9823 12.3537 59.9823V59.9742Z" fill="white"/>
<path id="Vector_9" d="M100.969 48.4142V44.1379H96.8592H94.6953C95.535 44.1379 96.1325 44.728 96.2052 45.3262C96.2214 46.4903 96.2294 48.4708 96.2294 50.1038V63.9514H103.44C101.986 63.9514 100.977 62.8844 100.977 61.8416V58.2847V58.3008L100.969 55.52C100.969 50.2816 103.399 48.39 107.364 48.4223V44.7927C104.061 44.8412 101.89 46.0376 100.969 48.4142Z" fill="white"/>
<path id="Vector_10" d="M84.6103 44.1379C78.6676 44.1379 75.6963 48.4466 75.6963 54.267C75.6963 59.19 78.2962 63.8949 84.4084 63.8949C90.0766 63.8949 92.1194 60.2895 92.8138 57.9451H88.2437C87.7108 59.1658 86.9761 60.2652 84.5296 60.2652C81.7278 60.2652 80.2986 57.8158 80.2825 54.9622H93.0076C93.0721 54.4367 93.0721 54.0002 93.0721 53.3777C93.0721 48.8993 90.9405 44.146 84.6022 44.146L84.6103 44.1379ZM80.4117 52.0601C80.662 49.4166 81.8166 47.4927 84.5941 47.4927C87.3717 47.4927 88.4698 49.5622 88.5102 52.0601H80.4117Z" fill="white"/>
<path id="Vector_11" d="M71.5948 61.3889V41.4945H79.7659V37.3959H71.6028V41.2843L71.4333 41.0337C69.9153 38.7621 67.3719 37.3959 64.6428 37.3959H56.1567C57.5132 37.3959 58.4498 38.3983 58.466 39.3765V41.5025H66.6452V63.9272L66.6049 63.9757H74.009C74.009 63.9757 73.9848 63.9757 73.9686 63.9757C72.6283 63.9595 71.6028 62.747 71.6028 61.405L71.5948 61.3889Z" fill="white"/>
<path id="Vector_12" d="M138.781 62.0195C138.773 61.9467 138.765 59.3922 138.765 59.0446C138.765 58.6566 138.765 57.064 138.757 56.6598C138.748 56.2557 138.74 51.7287 138.74 51.4862V51.0254C138.74 50.9769 138.74 50.9284 138.74 50.8799C138.74 45.7062 135.874 43.6852 132.539 43.6852C129.205 43.6852 127.549 45.1565 126.435 46.846C125.725 45.1242 124.053 43.6852 121.26 43.6852C118.312 43.6852 116.69 45.1484 115.729 46.7086L115.745 44.1379H109.495C110.4 44.1379 110.981 44.8008 110.981 45.4475C110.997 46.6844 110.981 64 110.981 64H118.07C116.617 64 115.729 62.7874 115.729 61.7446V52.8362C115.729 49.344 116.932 47.5897 119.451 47.5897C121.97 47.5897 122.592 49.4329 122.592 51.6317L122.551 64H129.56C128.882 64 128.187 63.6605 127.711 63.1755C127.283 62.7389 127.113 62.2296 127.113 61.6314C127.113 60.8715 127.113 60.1197 127.113 59.3599V52.5128C127.113 49.3439 128.3 47.5574 130.9 47.5574C133.5 47.5574 134.106 49.5137 134.106 51.4538L134.146 63.9919H141.219C140.646 63.9919 140.073 63.8141 139.621 63.4584C139.176 63.1108 138.862 62.5611 138.797 62.0114L138.781 62.0195Z" fill="white"/>
<path id="Vector_13" d="M168.93 61.8659V58.1958V51.6398C168.93 46.6116 166.266 44.0894 162.422 44.0894C158.87 44.0894 157.279 45.9083 156.576 47.2906C156.56 46.6763 156.552 43.6852 156.552 43.6852H150.311C151.183 43.6852 151.788 44.3158 151.829 44.9382C151.845 46.1185 151.845 48.2607 151.845 49.4895V64H158.974C157.65 63.9919 156.585 62.9168 156.585 61.591V53.4101C156.585 49.7886 157.957 47.9859 160.735 47.9859C163.327 47.9859 164.207 49.7158 164.207 52.1814V64H171.409C169.956 64 168.946 62.9087 168.946 61.8659H168.93Z" fill="white"/>
<path id="Vector_14" d="M191.183 64C189.899 63.9838 188.89 62.7308 188.817 61.4455C188.793 61.0251 188.777 60.5805 188.761 60.1278L188.736 50.2574C188.736 45.7062 185.959 43.7095 180.88 43.6852C175.05 43.661 173.064 46.5469 172.782 49.74H177.295C177.578 48.3011 178.094 47.1209 180.71 47.1209C183.609 47.1209 184.126 48.7215 184.126 50.217V51.5589H181.155C175.398 51.5589 171.869 53.5799 171.869 57.9694C171.869 60.9604 173.847 64.0081 178.53 64.0081C182.099 64.0081 183.504 62.6015 184.207 61.4455C184.231 62.173 184.392 63.6119 184.546 64.0081H191.223C191.223 64.0081 191.199 64.0081 191.191 64.0081L191.183 64ZM184.142 55.0269C184.142 57.9209 183.65 60.5643 179.774 60.5643C177.666 60.5643 176.617 59.279 176.617 57.6622C176.617 55.4957 178.127 54.4772 181.607 54.4772H184.142V55.0269Z" fill="white"/>
<path id="Vector_15" d="M197.537 61.8658L197.513 37.3879H192.774H191.248C192.144 37.3879 192.766 38.0588 192.774 38.7056V64H199.992C198.539 64 197.529 62.9087 197.529 61.8658H197.537Z" fill="white"/>
<path id="Vector_16" d="M33.0723 38.1073V37.3879H28.3489V42.8283C28.3489 42.8283 28.3489 42.8283 28.3569 42.8283C30.9649 42.8283 33.0723 40.7103 33.0723 38.1073Z" fill="white"/>
<path id="Vector_17" d="M33.0884 61.4778V43.6852H26.8228C27.719 43.6852 28.3407 44.3239 28.3488 44.9706V64H32.9915H35.4542C35.4542 64 35.4299 64 35.4219 64C34.1058 63.9838 33.0965 62.7955 33.0965 61.4778H33.0884Z" fill="white"/>
<path id="Vector_18" d="M147.436 38.1073V37.3879H142.713V42.8283C142.713 42.8283 142.713 42.8283 142.721 42.8283C145.329 42.8283 147.436 40.7103 147.436 38.1073Z" fill="white"/>
<path id="Vector_19" d="M147.453 61.4778V43.6852H141.187C142.083 43.6852 142.705 44.3239 142.713 44.9706V64H147.356H149.818C149.818 64 149.794 64 149.786 64C148.47 63.9838 147.461 62.7955 147.461 61.4778H147.453Z" fill="white"/>
<path id="Vector_20" d="M42.6483 61.7769L42.624 57.9694V37.3879H37.8844H36.3584C37.2546 37.3879 37.8764 38.0588 37.8844 38.7056V63.9596H45.1271C43.6737 63.9596 42.6483 62.8197 42.6483 61.7769Z" fill="white"/>
</g>
</g>
<defs>
<clipPath id="clip0_629_4708">
<rect width="200" height="64" fill="white"/>
</clipPath>
</defs>
</svg>
