<svg width="113" height="26" viewBox="0 0 113 26" fill="none" xmlns="http://www.w3.org/2000/svg">
<g id="_&#235;&#160;&#136;&#236;&#157;&#180;&#236;&#150;&#180;_1" clip-path="url(#clip0_629_4663)">
<g id="Group">
<path id="Vector" d="M4.76388 10.2361C5.2855 10.2361 5.79619 10.1704 6.29593 10.0356C6.79567 9.90424 7.2334 9.71065 7.60912 9.45483C7.99943 9.18864 8.30949 8.86368 8.5393 8.47996C8.7691 8.09278 8.88583 7.64682 8.88583 7.13865C8.88583 6.63047 8.7764 6.2018 8.55754 5.81462C8.33867 5.42744 8.03956 5.1094 7.66384 4.85358C7.28812 4.58739 6.85039 4.39034 6.35065 4.25898C5.8509 4.12761 5.32198 4.05847 4.76388 4.05847C4.20577 4.05847 3.69508 4.12415 3.19534 4.25898C2.6956 4.39034 2.25787 4.59085 1.88215 4.85358C1.50643 5.1094 1.20732 5.42744 0.988454 5.81462C0.769589 6.2018 0.660156 6.64084 0.660156 7.13865C0.660156 7.63645 0.773237 8.11006 0.999397 8.49724C1.22556 8.88443 1.52467 9.20938 1.90404 9.47557C2.27976 9.72793 2.71749 9.91807 3.21723 10.046C3.71697 10.1739 4.23495 10.2361 4.76752 10.2361H4.76388ZM3.62213 6.19489C3.95772 6.00476 4.33709 5.91142 4.76388 5.91142C5.19066 5.91142 5.58827 6.00821 5.92386 6.19489C6.25945 6.38502 6.4236 6.69961 6.4236 7.13865C6.4236 7.57768 6.25581 7.9061 5.92386 8.09969C5.58827 8.28982 5.20161 8.38316 4.76388 8.38316C4.32615 8.38316 3.95772 8.28637 3.62213 8.09969C3.28654 7.90956 3.11874 7.58806 3.11874 7.13865C3.11874 6.68924 3.28654 6.38502 3.62213 6.19489Z" fill="#3D3F46"/>
<path id="Vector_2" d="M11.8626 13.8003C11.1914 13.8798 10.5056 13.9213 9.80157 13.9213H5.84012C5.64679 13.9213 5.51182 13.8867 5.43887 13.8175C5.36591 13.7484 5.32943 13.6274 5.32943 13.4546V11.1211H2.68481V14.0111C2.68481 14.6334 2.87085 15.0966 3.24292 15.3939C3.61499 15.6912 4.13297 15.8433 4.80416 15.8433H9.87818C10.8156 15.8433 11.6364 15.7846 12.3404 15.6636C13.0444 15.5426 13.7156 15.3801 14.3503 15.1727L13.8032 13.3578C13.183 13.5756 12.5374 13.7277 11.8698 13.8072L11.8626 13.8003Z" fill="#3D3F46"/>
<path id="Vector_3" d="M9.54616 2.05345H6.23765V0H3.58939V2.03962H3.52737C3.52737 2.01542 3.52008 2.00505 3.50549 2.05345H0V3.81651H9.54616V2.05345Z" fill="#3D3F46"/>
<path id="Vector_4" d="M9.09009 6.08435H11.0599V7.60542H9.09009V9.51022H11.0599V11.6536H13.7081V0.774414H11.0599V4.183H9.09009V6.08435Z" fill="#3D3F46"/>
<path id="Vector_5" d="M28.6969 5.78352H27.1466V0.888428H24.6662V8.63554C23.9001 8.99161 23.1706 9.22668 22.4775 9.3373C21.7844 9.44793 20.9637 9.49978 20.0116 9.49978C19.6833 9.49978 19.4827 9.44101 19.4098 9.32002C19.3368 9.19902 19.3003 9.02963 19.3003 8.80839V3.39474H23.4259V1.47612H16.7651V9.52052C16.7651 10.2361 16.9621 10.7581 17.3597 11.0865C17.7537 11.415 18.3556 11.5774 19.1581 11.5774C20.4238 11.5774 21.4671 11.5083 22.2878 11.37C23.1086 11.2317 23.9038 11.007 24.6698 10.6959V14.502H27.1503V7.8266H28.7006V14.8477H31.1993V0.888428H28.7006V5.78352H28.6969Z" fill="#3D3F46"/>
<path id="Vector_6" d="M42.2481 9.33737C43.3899 9.16452 44.3456 8.73585 45.1043 8.05137C45.8631 7.36689 46.2461 6.39893 46.2461 5.15441C46.2461 4.42845 46.1038 3.79236 45.8156 3.25307C45.5311 2.71032 45.1372 2.26783 44.6374 1.92213C44.1486 1.56606 43.5796 1.29642 42.923 1.11665C42.2664 0.936889 41.5733 0.850464 40.8438 0.850464C40.1142 0.850464 39.4029 0.940346 38.7463 1.11665C38.0897 1.29642 37.5097 1.5626 37.0136 1.92213C36.5248 2.26783 36.1418 2.71378 35.8536 3.25307C35.5655 3.79582 35.4232 4.42845 35.4232 5.15441C35.4232 5.78704 35.529 6.34707 35.7442 6.83105C35.9558 7.31503 36.244 7.72987 36.6124 8.07902C36.9881 8.42472 37.4331 8.70474 37.9438 8.91907C38.4545 9.13341 39.0089 9.2786 39.6035 9.35811V11.4669H33.6541V13.3855H48.256V11.4669H42.2518V9.34083L42.2481 9.33737ZM38.863 6.85525C38.3596 6.44733 38.1043 5.88038 38.1043 5.15096C38.1043 4.42153 38.3487 3.85113 38.8448 3.42938C39.3372 3.00762 40.0048 2.79675 40.8438 2.79675C41.6827 2.79675 42.3029 3.00762 42.8136 3.42938C43.3242 3.85113 43.5796 4.42499 43.5796 5.15096C43.5796 5.87692 43.3242 6.44387 42.8136 6.85525C42.3029 7.26663 41.6463 7.4706 40.8438 7.4706C40.0413 7.4706 39.3664 7.26663 38.863 6.85525Z" fill="#3D3F46"/>
<path id="Vector_7" d="M62.6245 14.0838C62.3691 14.1253 62.1247 14.1495 61.8949 14.1599C61.6505 14.1841 61.4207 14.191 61.2019 14.1841C60.983 14.1772 60.7641 14.1772 60.5453 14.1772H55.4712V13.2956H62.5333C62.7521 13.2956 62.9272 13.2472 63.0549 13.147C63.1826 13.0502 63.2665 12.8912 63.303 12.6699L63.5765 10.6476C63.624 10.2431 63.5619 9.89395 63.3869 9.59319C63.2118 9.29243 62.8908 9.09193 62.4275 8.98822C62.7667 8.805 63.0513 8.51115 63.2774 8.10668C63.5036 7.70222 63.6167 7.22861 63.6167 6.68932V0.774414H60.972V6.86217C60.972 7.25281 60.9246 7.6469 60.8261 8.03754C60.7276 8.43164 60.5453 8.72203 60.279 8.91908H52.8157V10.7513H60.9757V11.6155H52.8157V14.5712C52.8157 15.1002 52.9361 15.4735 53.1732 15.6879C53.4103 15.9022 53.8225 16.0059 54.4061 16.0059H60.6292C61.1034 16.0059 61.5958 15.9852 62.1065 15.9471C62.6172 15.9056 63.2191 15.7777 63.9121 15.5565L63.4562 13.8971C63.1643 13.9766 62.8908 14.0389 62.6354 14.0769L62.6245 14.0838Z" fill="#3D3F46"/>
<path id="Vector_8" d="M56.1462 7.50162C56.6933 7.35297 57.1748 7.12826 57.587 6.82751C57.9883 6.53021 58.3129 6.14994 58.5646 5.69707C58.8127 5.24075 58.9404 4.70837 58.9404 4.09649C58.9404 3.4846 58.82 2.99025 58.5756 2.54084C58.3312 2.09143 58.0029 1.71462 57.5907 1.41732C57.1785 1.12002 56.697 0.89186 56.1498 0.732839C55.6027 0.577274 55.03 0.501221 54.4354 0.501221C53.8408 0.501221 53.2499 0.577274 52.7027 0.725925C52.1555 0.874575 51.674 1.09928 51.2618 1.40004C50.8496 1.7008 50.5213 2.07415 50.2842 2.52356C50.0471 2.97297 49.9268 3.49843 49.9268 4.09649C49.9268 4.69455 50.0471 5.24075 50.2842 5.69707C50.5213 6.15339 50.8387 6.53021 51.2436 6.82751C51.6558 7.13864 52.1373 7.3668 52.6845 7.51199C53.2316 7.65718 53.8153 7.72978 54.4354 7.72978C55.0555 7.72978 55.6027 7.65373 56.1498 7.50508L56.1462 7.50162ZM52.513 4.09649C52.513 3.57794 52.6808 3.17001 53.0164 2.86926C53.352 2.5685 53.8226 2.41985 54.4317 2.41985C55.0409 2.41985 55.5261 2.5685 55.8544 2.86926C56.1826 3.17001 56.3468 3.57794 56.3468 4.09649C56.3468 4.64961 56.1826 5.07136 55.8544 5.35829C55.5261 5.64867 55.0518 5.79041 54.4317 5.79041C53.8116 5.79041 53.352 5.64867 53.0164 5.35829C52.6808 5.07136 52.513 4.64961 52.513 4.09649Z" fill="#3D3F46"/>
<path id="Vector_9" d="M96.9681 0.947266H94.3235V14.9066H96.9681V0.947266Z" fill="#3D3F46"/>
<path id="Vector_10" d="M83.3547 10.0287C83.3547 10.651 83.5481 11.1142 83.9311 11.4219C84.3141 11.7261 84.9196 11.8817 85.7477 11.8817H87.4256C87.7649 11.8817 88.1479 11.8575 88.5674 11.8056C88.9869 11.7538 89.41 11.6777 89.8368 11.574C90.249 11.4703 90.6466 11.3458 91.0223 11.2006C91.398 11.0555 91.7154 10.8861 91.9707 10.689V1.53491H83.3547V10.0287ZM85.9483 3.50539H89.3626V9.47215C89.0708 9.63463 88.7461 9.74526 88.385 9.80748C88.0275 9.87317 87.6883 9.90428 87.3709 9.90428H86.459C86.2766 9.90428 86.1453 9.87317 86.065 9.80748C85.9848 9.74526 85.9483 9.62772 85.9483 9.45141V3.50539Z" fill="#3D3F46"/>
<path id="Vector_11" d="M112.544 13.9041C112.252 13.9836 111.979 14.0458 111.723 14.0838C111.468 14.1218 111.224 14.1495 110.994 14.1599C110.749 14.1841 110.52 14.191 110.301 14.1841C110.082 14.1772 109.863 14.1772 109.644 14.1772H104.57V13.2783H111.632C111.851 13.2783 112.026 13.2299 112.154 13.1297C112.281 13.0329 112.365 12.8739 112.402 12.6561L112.694 10.6994C112.741 10.2984 112.675 9.93543 112.493 9.62084C112.311 9.3028 111.99 9.09193 111.526 8.98822C111.866 8.805 112.15 8.51115 112.376 8.10668C112.602 7.70222 112.716 7.22861 112.716 6.68932V0.774414H110.071V2.50291H105.964V4.39042H110.071V6.86563C110.071 7.25627 110.023 7.65036 109.925 8.041C109.827 8.4351 109.644 8.72548 109.378 8.92253H101.915V10.7547H110.075V11.6017H101.915V14.5747C101.915 15.1036 102.035 15.477 102.272 15.6913C102.509 15.9056 102.921 16.0094 103.505 16.0094H109.728C110.202 16.0094 110.695 15.9886 111.205 15.9506C111.716 15.9091 112.318 15.7812 113.011 15.5599L112.555 13.9006L112.544 13.9041Z" fill="#3D3F46"/>
<path id="Vector_12" d="M104.132 7.76094C105.044 7.76094 105.92 7.68489 106.759 7.52932C107.598 7.37376 108.28 7.21473 108.805 7.05226L108.44 5.25462C107.696 5.46204 106.937 5.60724 106.16 5.68675C105.383 5.76626 104.701 5.80774 104.118 5.80774H102.659C102.513 5.80774 102.407 5.78008 102.338 5.72132C102.272 5.66255 102.235 5.55192 102.235 5.3929V1.01636H99.5908V5.94602C99.5908 6.58211 99.7696 7.04189 100.131 7.32882C100.488 7.6192 101.09 7.76094 101.929 7.76094H104.14H104.132Z" fill="#3D3F46"/>
<path id="Vector_13" d="M69.9054 9.65195H69.4276V7.10415H74.0931V5.15441H69.4276V3.19776H74.0931V1.09937H67.0347V10.575C67.0347 11.294 67.6511 11.8783 68.4099 11.8783H69.9091C71.4557 11.8783 73.6991 11.6121 75.1217 10.976L74.5198 8.8603C72.8638 9.42379 71.4411 9.64849 69.9091 9.64849L69.9054 9.65195Z" fill="#3D3F46"/>
<path id="Vector_14" d="M77.6752 5.13357H75.6069V7.27691H77.6752V15.8399H80.225V0.566895H77.6752V5.13357Z" fill="#3D3F46"/>
</g>
<g id="Group_2">
<path id="Vector_15" d="M38.7537 21.0254C37.1852 21.0254 36.2878 22.1109 36.2878 23.5075C36.2878 24.9041 37.1232 25.9896 38.6881 25.9896C40.2529 25.9896 41.1539 24.8246 41.1539 23.4868C41.1539 22.0245 40.2274 21.0254 38.7574 21.0254H38.7537ZM38.7245 25.2429C37.7579 25.2429 37.2764 24.4616 37.2764 23.4868C37.2764 22.5119 37.7141 21.7721 38.7136 21.7721C39.7131 21.7721 40.1618 22.543 40.1618 23.5006C40.1618 24.4582 39.7714 25.2464 38.7245 25.2464V25.2429Z" fill="#3D3F46"/>
<path id="Vector_16" d="M23.9913 21.0253L22.0069 21.0184H21.5509C21.8208 21.0184 22.0069 21.2086 22.0069 21.3918V25.5989C21.9996 25.7925 21.8063 25.9896 21.5217 25.9896H23.9584C25.5233 25.9896 26.4827 24.911 26.4827 23.466C26.4827 22.021 25.4832 21.0253 23.9876 21.0253H23.9913ZM23.911 25.2325H22.9808V22.1454C22.9808 21.9622 22.7911 21.7755 22.5249 21.7755H23.1705H23.9147C25.0199 21.7755 25.4722 22.6086 25.4722 23.4729C25.4722 24.4858 24.9834 25.2325 23.9074 25.2325H23.911Z" fill="#3D3F46"/>
<path id="Vector_17" d="M10.17 21.0254H9.14499C8.71821 21.7686 8.05796 22.9233 7.8318 23.4073C7.58011 22.906 6.96729 21.7859 6.5405 21.0254H5.16895C5.27838 21.0254 5.37322 21.0807 5.44982 21.1533C5.51548 21.2121 5.56655 21.2847 5.61397 21.3573C5.6468 21.4057 7.28099 24.2335 7.29194 24.2542V26H8.74739C8.74739 26 8.74374 26 8.74009 26C8.47381 26 8.26953 25.7753 8.26953 25.5229V24.2196L10.17 21.0288V21.0254Z" fill="#3D3F46"/>
<path id="Vector_18" d="M28.445 21.0254H27.8869C27.8869 21.0254 27.8906 21.0254 27.8942 21.0254C28.1678 21.0254 28.3429 21.3054 28.2554 21.5509L26.6394 25.9896H27.6024C27.6024 25.9896 27.7666 25.5126 27.9818 24.8765C28.0365 24.7417 27.8979 24.5031 27.6316 24.5031H28.1131H29.9807C30.2689 25.3155 30.5097 25.9896 30.5097 25.9896H31.5383L29.6743 21.0254H28.456H28.445ZM28.3502 23.7702C28.653 22.8714 28.9448 21.9899 29.0031 21.7825H29.0323C29.087 21.9726 29.3971 22.8611 29.7145 23.7702H28.3502Z" fill="#3D3F46"/>
<path id="Vector_19" d="M56.2119 23.0857V22.2871H55.4021H54.9753C55.1395 22.2871 55.2599 22.3977 55.2745 22.5084C55.2745 22.7261 55.2781 23.096 55.2781 23.4003V25.9861H56.7007C56.4126 25.9861 56.2156 25.7856 56.2156 25.592V24.9282V24.4132C56.2156 23.4348 56.6934 23.0822 57.4777 23.0857V22.4081C56.8248 22.415 56.398 22.6397 56.2156 23.0857H56.2119Z" fill="#3D3F46"/>
<path id="Vector_20" d="M52.9836 22.2871C51.809 22.2871 51.2253 23.0926 51.2253 24.1781C51.2253 25.0977 51.7397 25.9758 52.9434 25.9758C54.0633 25.9758 54.4645 25.3016 54.6032 24.8661H53.7022C53.5964 25.0942 53.4505 25.2982 52.969 25.2982C52.4145 25.2982 52.1336 24.8419 52.13 24.306H54.6396C54.6506 24.2058 54.6506 24.1263 54.6506 24.0087C54.6506 23.1721 54.2311 22.2837 52.9799 22.2837L52.9836 22.2871ZM52.1519 23.7633C52.2029 23.2689 52.4291 22.9094 52.9763 22.9094C53.5234 22.9094 53.7423 23.2966 53.7496 23.7633H52.1519Z" fill="#3D3F46"/>
<path id="Vector_21" d="M5.17981 26C4.92081 26 4.71289 25.7995 4.71289 25.554V21.0254H3.28298C3.55291 21.0254 3.73894 21.2155 3.73894 21.3987V23.0339H1.42992V21.0254H0C0.269934 21.0254 0.455969 21.2155 0.455969 21.3987V25.9896H0.466912L0.455969 26H1.91507C1.63054 26 1.43357 25.8029 1.42992 25.6094V24.1712C1.42992 23.988 1.24024 23.8014 0.973949 23.8014H1.42992H3.7353V25.9827L3.71706 26.0035H5.17616L5.17981 26Z" fill="#3D3F46"/>
<path id="Vector_22" d="M20.8251 21.0253H19.4645C19.7526 21.0253 19.9496 21.2293 19.9496 21.4229V22.1557C19.9496 22.1557 19.9496 24.2541 19.9496 24.8695C19.6943 24.3336 18.3884 22.1454 17.7026 21.0253H16.0173C16.2873 21.0253 16.4733 21.2154 16.4733 21.3987V25.9895H16.4806L16.4733 25.9999H17.8667C17.5786 25.9999 17.3706 25.7994 17.3706 25.6024C17.3706 25.6024 17.3706 22.4669 17.3706 21.9863H17.3816C17.6625 22.5498 19.0741 24.987 19.676 25.9861H20.8397V21.0219H20.8214L20.8251 21.0253Z" fill="#3D3F46"/>
<path id="Vector_23" d="M14.4669 21.0254H13.9817C13.9817 21.0254 13.9854 21.0254 13.989 21.0254C14.2517 21.0254 14.456 21.2536 14.456 21.5059V23.95C14.456 24.9283 14.0036 25.2637 13.3106 25.2637C12.7123 25.2637 12.1469 24.9698 12.1469 23.95V21.0288H10.7097C10.9797 21.0288 11.1657 21.219 11.1657 21.4022V23.9327C11.1657 25.5333 12.1542 26 13.296 26C14.4377 26 15.4336 25.561 15.4336 23.9051V21.0288H14.4669V21.0254Z" fill="#3D3F46"/>
<path id="Vector_24" d="M33.333 25.5921V24.8765V21.0254H32.3992H32.1001C32.2788 21.0254 32.3992 21.1498 32.3992 21.2708V25.9862H33.8218C33.5337 25.9862 33.3367 25.7891 33.3367 25.5921H33.333Z" fill="#3D3F46"/>
<path id="Vector_25" d="M50.4155 25.5056V21.7893H52.0278V21.0219H50.4155V21.7478L50.3827 21.6994C50.0836 21.2742 49.5802 21.0219 49.0439 21.0219H47.3696C47.6359 21.0219 47.8219 21.2085 47.8256 21.3917V21.7893H49.4415V25.9792L49.4343 25.9895H50.8934C50.8934 25.9895 50.8897 25.9895 50.8861 25.9895C50.6198 25.9895 50.4191 25.7614 50.4191 25.509L50.4155 25.5056Z" fill="#3D3F46"/>
<path id="Vector_26" d="M63.6714 25.6266C63.6714 25.6266 63.6677 25.1357 63.6677 25.07V24.624C63.6677 24.548 63.6641 23.7045 63.6641 23.6595V23.5731C63.6641 23.5731 63.6641 23.5558 63.6641 23.5455C63.6641 22.581 63.0987 22.2007 62.4421 22.2007C61.7855 22.2007 61.4572 22.4772 61.2383 22.7918C61.0997 22.4703 60.7678 22.2007 60.2169 22.2007C59.6333 22.2007 59.3159 22.4738 59.1263 22.7642V22.2837H58.3238H57.897C58.0757 22.2837 58.1888 22.4081 58.1888 22.5291C58.1888 22.7607 58.1888 25.993 58.1888 25.993H59.5895C59.3014 25.993 59.1263 25.7683 59.1263 25.5712V23.9084C59.1263 23.2551 59.3634 22.9267 59.8631 22.9267C60.3629 22.9267 60.4832 23.2723 60.4832 23.6803L60.4759 25.9895H61.8584C61.7235 25.9895 61.5885 25.9239 61.4937 25.834C61.4098 25.7545 61.3769 25.6577 61.3769 25.5436C61.3769 25.4019 61.3769 25.2601 61.3769 25.1184V23.8393C61.3769 23.2481 61.6104 22.9128 62.1247 22.9128C62.639 22.9128 62.7558 23.2793 62.7558 23.6422L62.7631 25.9861H64.1565C64.0434 25.9861 63.9303 25.9515 63.8392 25.8858C63.7516 25.8201 63.6896 25.7199 63.675 25.6162L63.6714 25.6266Z" fill="#3D3F46"/>
<path id="Vector_27" d="M69.621 25.5954V24.911V23.6872C69.621 22.7469 69.0958 22.2767 68.337 22.2767C67.6367 22.2767 67.323 22.6155 67.1843 22.8748C67.1843 22.7607 67.1807 22.2007 67.1807 22.2007H65.9478C66.1192 22.2007 66.2396 22.3182 66.2469 22.4358C66.2469 22.657 66.2469 23.058 66.2469 23.2862V25.9965H67.6549C67.3959 25.9965 67.1843 25.7925 67.1843 25.547V24.0191C67.1843 23.3415 67.4543 23.0062 68.0014 23.0062C68.5121 23.0062 68.6872 23.3311 68.6872 23.7909V25.9965H70.1098C69.8217 25.9965 69.6247 25.7925 69.6247 25.5989L69.621 25.5954Z" fill="#3D3F46"/>
<path id="Vector_28" d="M74.0128 25.9966C73.7575 25.9966 73.5605 25.758 73.5459 25.5195C73.5423 25.44 73.5386 25.357 73.535 25.274V23.4315C73.5313 22.5811 72.9805 22.2077 71.981 22.2042C70.8284 22.2008 70.438 22.7401 70.3833 23.3347H71.2734C71.3281 23.065 71.4302 22.8438 71.9482 22.8438C72.5209 22.8438 72.623 23.1445 72.623 23.4211V23.6735H72.0358C70.9013 23.6735 70.2046 24.0503 70.2046 24.8696C70.2046 25.4296 70.5949 25.9966 71.5178 25.9966C72.2218 25.9966 72.499 25.7338 72.6376 25.516C72.6413 25.6509 72.6741 25.9205 72.7033 25.9966H74.0201C74.0201 25.9966 74.0165 25.9966 74.0128 25.9966ZM72.623 24.3199C72.623 24.8592 72.5246 25.3536 71.7622 25.3536C71.3463 25.3536 71.1384 25.115 71.1384 24.8108C71.1384 24.4063 71.4375 24.2162 72.1233 24.2162H72.623V24.3199Z" fill="#3D3F46"/>
<path id="Vector_29" d="M75.2676 25.5954V21.0219H74.3301H74.031C74.2097 21.0219 74.3301 21.1463 74.3301 21.2673V25.993H75.7564C75.4682 25.993 75.2712 25.789 75.2712 25.5954H75.2676Z" fill="#3D3F46"/>
<path id="Vector_30" d="M42.8137 21.1567V21.0219H41.8799V22.0382C42.3942 22.0382 42.8101 21.6441 42.8101 21.1567H42.8137Z" fill="#3D3F46"/>
<path id="Vector_31" d="M42.8174 25.5228V22.2007H41.5808C41.7596 22.2007 41.8799 22.3217 41.8799 22.4427V25.9965H42.7955H43.2807C43.2807 25.9965 43.277 25.9965 43.2734 25.9965C43.0144 25.9965 42.8138 25.7717 42.8138 25.5263L42.8174 25.5228Z" fill="#3D3F46"/>
<path id="Vector_32" d="M65.3823 21.1567V21.0219H64.4485V22.0382C64.9628 22.0382 65.3787 21.6441 65.3787 21.1567H65.3823Z" fill="#3D3F46"/>
<path id="Vector_33" d="M65.3823 25.5228V22.2007H64.1458C64.3245 22.2007 64.4449 22.3217 64.4449 22.4427V25.9965H65.3604H65.8456C65.8456 25.9965 65.842 25.9965 65.8383 25.9965C65.5793 25.9965 65.3787 25.7717 65.3787 25.5263L65.3823 25.5228Z" fill="#3D3F46"/>
<path id="Vector_34" d="M44.7031 25.5817V24.8696H44.6995V21.0254H43.7657H43.4666C43.6453 21.0254 43.7657 21.1498 43.7657 21.2708V25.9896H45.1956C44.9074 25.9896 44.7068 25.7787 44.7068 25.5817H44.7031Z" fill="#3D3F46"/>
</g>
</g>
<defs>
<clipPath id="clip0_629_4663">
<rect width="113" height="26" fill="white"/>
</clipPath>
</defs>
</svg>
