<svg width="112" height="20" viewBox="0 0 112 20" fill="none" xmlns="http://www.w3.org/2000/svg">
<g clip-path="url(#clip0_4040_1347)">
<path d="M20.138 0.0711288L20.1316 7.94374L5.45533 7.93728L5.47464 0.0711288H0.0257479L0 9.42127H0.0193109V20H5.47142L5.4682 12.3828H20.1316L20.1348 20H25.5869L25.5902 0.0711288H20.138Z" fill="#0369B4"/>
<path d="M55.2808 4.45522C54.9525 3.57258 54.415 2.77401 53.6651 2.04332C52.352 0.733916 50.5432 0.0711288 48.2484 0.0711288H29.0501C29.0501 2.52182 31.0263 4.50695 33.4659 4.50695H36.0214H46.8451C46.9031 4.50695 46.9707 4.50695 47.0286 4.51342C47.9298 4.54252 48.6829 4.76883 49.2654 5.28613C49.8802 5.80343 50.1988 6.53411 50.1988 7.46201V12.5154C50.1988 13.4142 49.8769 14.1351 49.2461 14.6783C48.641 15.2118 47.8493 15.4866 46.8484 15.4995H34.5151V12.7708L34.5183 12.3569V7.92111H29.0501V12.7675L29.0437 19.9935H48.242C50.5045 19.9935 52.3133 19.3307 53.6587 17.9825C54.9976 16.657 55.6606 15.1277 55.6606 13.4077V6.64727C55.6606 5.86162 55.535 5.13094 55.2743 4.44876L55.2808 4.45522Z" fill="#0369B4"/>
<path d="M58.5957 6.70546C58.5957 4.90462 59.2619 3.3592 60.5944 2.04656C61.9429 0.737149 63.7485 0.0743618 66.0175 0.0743618H78.2091C80.5071 0.0743618 82.3159 0.737149 83.6291 2.04656C84.9615 3.34303 85.6277 4.87229 85.6277 6.65697V13.4142C85.6277 15.1342 84.9583 16.6667 83.613 17.9922C82.2644 19.334 80.475 19.9968 78.2059 19.9968H66.0143C63.7807 19.9968 61.988 19.334 60.6073 17.9922C59.2587 16.6505 58.5957 15.118 58.5957 13.3657V6.70223V6.70546ZM76.8091 15.4963C77.8229 15.4801 78.6308 15.1956 79.2197 14.6751C79.8377 14.1545 80.1531 13.4271 80.1563 12.5121V7.42968C80.1402 6.49855 79.8248 5.7711 79.223 5.25057C78.605 4.6977 77.8133 4.42936 76.8123 4.42936H67.4272C66.4456 4.42936 65.6506 4.6977 65.0327 5.25057C64.4469 5.78726 64.1283 6.51148 64.0961 7.42968V12.5606C64.0961 13.4433 64.4115 14.1545 65.0295 14.6751C65.6796 15.2279 66.4713 15.4963 67.424 15.4963H76.8091Z" fill="#0369B4"/>
<path d="M112 0H92.3479C89.9051 0 87.9225 1.98189 87.9128 4.43582H96.828V19.9289H102.293V4.43582H107.562C110.005 4.43582 111.987 2.45393 111.997 0H112Z" fill="#0369B4"/>
</g>
<defs>
<clipPath id="clip0_4040_1347">
<rect width="112" height="20" fill="white"/>
</clipPath>
</defs>
</svg>
