<svg width="24" height="24" viewBox="0 0 24 24" fill="none" xmlns="http://www.w3.org/2000/svg">
<g id="icon/common/line/24/notice">
<path id="Rectangle 36244" d="M17.5 12.4608V9.5C17.5 6.46243 15.0376 4 12 4C8.96243 4 6.5 6.46243 6.5 9.5V12.4608C6.5 12.8061 6.36286 13.1371 6.11875 13.3812L4.91421 14.5858C4.649 14.851 4.5 15.2107 4.5 15.5858C4.5 16.3668 5.13316 17 5.91421 17H18.0858C18.8668 17 19.5 16.3668 19.5 15.5858C19.5 15.2107 19.351 14.851 19.0858 14.5858L17.8812 13.3812C17.6371 13.1371 17.5 12.8061 17.5 12.4608Z" stroke="#3D3F46"/>
<path id="Rectangle 36250" d="M10 18.5V18.5C10 19.6046 10.8954 20.5 12 20.5V20.5C13.1046 20.5 14 19.6046 14 18.5V18.5" stroke="#3D3F46"/>
</g>
</svg>
