<svg width="24" height="24" viewBox="0 0 24 24" fill="none" xmlns="http://www.w3.org/2000/svg">
<g id="icon/common/line/24/operation">
<path id="Rectangle 36222" d="M18 4H6C4.34315 4 3 5.34315 3 7V15C3 16.6569 4.34315 18 6 18H12H18C19.6569 18 21 16.6569 21 15V7C21 5.34315 19.6569 4 18 4Z" fill="#EB4CC1"/>
<path id="Rectangle 36223" d="M17.5852 21H6.4148C5.94333 21 5.73385 20.4073 6.10063 20.111L8.57682 18.111C8.66577 18.0392 8.77665 18 8.89099 18H12H15.109C15.2233 18 15.3342 18.0392 15.4232 18.111L17.8994 20.111C18.2661 20.4073 18.0567 21 17.5852 21Z" fill="#7A1F68"/>
<path id="Vector 39" d="M9 11L11 13L15 9" stroke="white" stroke-width="1.5" stroke-linecap="square" stroke-linejoin="round"/>
</g>
</svg>
