<svg width="24" height="24" viewBox="0 0 24 24" fill="none" xmlns="http://www.w3.org/2000/svg">
<g id="icon/common/fill/nav/operational information">
<path id="Rectangle 36222" d="M18 4H6C4.34315 4 3 5.34315 3 7V15C3 16.6569 4.34315 18 6 18H12H18C19.6569 18 21 16.6569 21 15V7C21 5.34315 19.6569 4 18 4Z" fill="#28A1EC"/>
<path id="Rectangle 36223" d="M17.5852 21H6.4148C5.94333 21 5.73385 20.4073 6.10063 20.111L8.57682 18.111C8.66577 18.0392 8.77665 18 8.89099 18H12H15.109C15.2233 18 15.3342 18.0392 15.4232 18.111L17.8994 20.111C18.2661 20.4073 18.0567 21 17.5852 21Z" fill="#2362A0"/>
<path id="Rectangle 36334" d="M11.083 7.99655C11.0383 7.46009 11.4617 7 12 7C12.5383 7 12.9617 7.46009 12.917 7.99655L12.5415 12.5017C12.5181 12.7834 12.2826 13 12 13C11.7174 13 11.4819 12.7834 11.4585 12.5017L11.083 7.99655Z" fill="white"/>
<circle id="Ellipse 931" cx="12" cy="14.5" r="0.75" fill="white"/>
</g>
</svg>
