<svg width="24" height="24" viewBox="0 0 24 24" fill="none" xmlns="http://www.w3.org/2000/svg">
<g id="icon/common/line/24/settings">
<path id="Subtract" fill-rule="evenodd" clip-rule="evenodd" d="M13.0687 2.44C13.7425 2.44 14.2887 3.01084 14.2887 3.715V4.63331C14.2887 5.16716 14.6125 5.63445 15.0648 5.8824C15.2968 6.00956 15.5207 6.15072 15.7355 6.30479C16.1721 6.61807 16.7432 6.69246 17.2018 6.4157L17.8566 6.02065C18.4401 5.66857 19.1862 5.87751 19.5231 6.48733L20.3364 7.95957C20.6732 8.5694 20.4733 9.34917 19.8898 9.70126L19.2314 10.0985C18.7738 10.3747 18.5497 10.927 18.5893 11.4776C18.6017 11.6509 18.6081 11.8259 18.6081 12.0025C18.6081 12.181 18.6016 12.3578 18.5889 12.5329C18.5488 13.084 18.7729 13.6369 19.2309 13.9132L19.8781 14.3037C20.4616 14.6558 20.6615 15.4356 20.3246 16.0454L19.5113 17.5177C19.1744 18.1275 18.4283 18.3364 17.8448 17.9844L17.1965 17.5932C16.7382 17.3166 16.1676 17.3907 15.7311 17.7033C15.5177 17.8562 15.2953 17.9963 15.0648 18.1226C14.6125 18.3706 14.2887 18.8378 14.2887 19.3717V20.29C14.2887 20.9942 13.7425 21.565 13.0687 21.565H11.4421C10.7683 21.565 10.2221 20.9942 10.2221 20.29V19.6242C10.2221 19.0519 9.85175 18.5608 9.35016 18.3311C8.97069 18.1573 8.60984 17.9473 8.27161 17.7053C7.83515 17.393 7.26486 17.3192 6.80678 17.5956L6.15517 17.9888C5.57167 18.3408 4.82556 18.1319 4.48868 17.5221L3.67537 16.0498C3.33849 15.44 3.53841 14.6602 4.12191 14.3081L4.76944 13.9174C5.22762 13.641 5.45168 13.0877 5.41135 12.5363C5.39846 12.3602 5.3919 12.1821 5.3919 12.0025C5.3919 11.8247 5.39833 11.6486 5.41095 11.4742C5.45083 10.9233 5.22673 10.3706 4.76891 10.0943L4.11018 9.69686C3.52669 9.34478 3.32677 8.565 3.66365 7.95517L4.47695 6.48293C4.81383 5.87311 5.55994 5.66417 6.14344 6.01625L6.80145 6.4133C7.2599 6.68992 7.83067 6.61574 8.26724 6.30284C8.60673 6.05952 8.96905 5.84848 9.35016 5.67393C9.85175 5.4442 10.2221 4.95315 10.2221 4.3808V3.715C10.2221 3.01084 10.7683 2.44 11.4421 2.44H13.0687ZM12 14.6588C13.467 14.6588 14.6562 13.4695 14.6562 12.0025C14.6562 10.5355 13.467 9.34625 12 9.34625C10.533 9.34625 9.34375 10.5355 9.34375 12.0025C9.34375 13.4695 10.533 14.6588 12 14.6588Z" fill="#5E6683"/>
</g>
</svg>
