<svg width="24" height="24" viewBox="0 0 24 24" fill="none" xmlns="http://www.w3.org/2000/svg">
<rect x="11" y="2" width="2" height="4" rx="0.5" fill="#FF523C"/>
<rect x="10" y="4" width="4" height="4" rx="0.5" fill="#697B85"/>
<rect x="7" y="6" width="10" height="7" rx="1" fill="#FFCF54"/>
<path d="M3.09313 14.6965C3.03794 14.4813 3.13141 14.2555 3.32256 14.1422L11.7451 9.15105C11.9023 9.05791 12.0977 9.05791 12.2549 9.15105L20.6774 14.1422C20.8686 14.2555 20.9621 14.4813 20.9069 14.6965L18.8741 22.6242C18.8174 22.8453 18.6181 23 18.3898 23H5.61019C5.38188 23 5.18257 22.8453 5.12586 22.6242L3.09313 14.6965Z" fill="#465561"/>
<mask id="mask0_4383_8998" style="mask-type:alpha" maskUnits="userSpaceOnUse" x="3" y="9" width="18" height="14">
<path d="M3.09313 14.6965C3.03794 14.4813 3.13141 14.2555 3.32256 14.1422L11.7451 9.15105C11.9023 9.05791 12.0977 9.05791 12.2549 9.15105L20.6774 14.1422C20.8686 14.2555 20.9621 14.4813 20.9069 14.6965L18.8741 22.6242C18.8174 22.8453 18.6181 23 18.3898 23H5.61019C5.38188 23 5.18257 22.8453 5.12586 22.6242L3.09313 14.6965Z" fill="#465561"/>
</mask>
<g mask="url(#mask0_4383_8998)">
<path d="M11.5 16C11.5 16.2761 11.7239 16.5 12 16.5C12.2761 16.5 12.5 16.2761 12.5 16H11.5ZM11.5 9V16H12.5V9H11.5Z" fill="#CADDEE"/>
</g>
<path fill-rule="evenodd" clip-rule="evenodd" d="M0.820206 18.7583C1.18238 18.9134 1.58126 18.9993 2.00019 18.9993C3.04368 18.9993 3.96273 18.4666 4.50019 17.6582C5.03765 18.4666 5.9567 18.9993 7.00019 18.9993C8.04365 18.9993 8.96269 18.4666 9.50015 17.6583C10.0376 18.4666 10.9567 18.9994 12.0002 18.9994C13.0437 18.9994 13.9627 18.4667 14.5002 17.6583C15.0376 18.4667 15.9567 18.9994 17.0002 18.9994C18.0437 18.9994 18.9627 18.4667 19.5002 17.6583C20.0377 18.4667 20.9567 18.9994 22.0002 18.9994C22.4189 18.9994 22.8176 18.9136 23.1797 18.7587C21.7557 21.852 18.6286 23.9994 15 23.9994H9.00003C5.37129 23.9994 2.24413 21.8518 0.820206 18.7583Z" fill="#83C3FF"/>
</svg>
