<svg width="24" height="24" viewBox="0 0 24 24" fill="none" xmlns="http://www.w3.org/2000/svg">
<path d="M2.66667 19L2.2246 17.2317C2.09786 16.7248 2.38279 16.2057 2.87851 16.0405L5.68377 15.1054C5.88904 15.037 6.11096 15.037 6.31623 15.1054L9.12149 16.0405C9.61721 16.2057 9.90214 16.7248 9.7754 17.2317L9.33333 19" stroke="#3D3F46"/>
<path d="M4 15.5V14C4 13.7239 4.22386 13.5 4.5 13.5H7.5C7.77614 13.5 8 13.7239 8 14V15.5" stroke="#3D3F46"/>
<path d="M5 13.5V12.5C5 12.2239 5.22386 12 5.5 12H6.5C6.77614 12 7 12.2239 7 12.5V13.5" stroke="#3D3F46"/>
<path d="M6 15V19" stroke="#3D3F46"/>
<path d="M2 19.75C2 19.75 2.5 20 3 20C3.5 20 4 19.75 4 19.75V19.75C4 19.75 4.5 19.5 5 19.5C5.5 19.5 6 19.75 6 19.75C6 19.75 6 19.75 6 19.75C6 19.75 6.5 20 7 20C7.5 20 8 19.75 8 19.75C8 19.75 8 19.75 8 19.75C8 19.75 8.5 19.5 9 19.5C9.5 19.5 10 19.75 10 19.75" stroke="#3D3F46" stroke-linecap="square" stroke-linejoin="round"/>
<path d="M12 20.5H17C18.6569 20.5 20 19.1569 20 17.5C20 14.5 20 11.5 20 8.5C20 6.84315 18.6569 5.5 17 5.5H7C5.34315 5.5 4 6.84315 4 8.5V11" stroke="#3D3F46"/>
<path d="M19 9L5 9" stroke="#3D3F46" stroke-linecap="square"/>
<circle cx="12" cy="13" r="1" fill="#3D3F46"/>
<circle cx="12" cy="16.5" r="1" fill="#3D3F46"/>
<circle cx="16" cy="13" r="1" fill="#3D3F46"/>
<circle cx="16" cy="16.5" r="1" fill="#3D3F46"/>
<path d="M8 3.5V5.5" stroke="#3D3F46" stroke-linecap="square"/>
<path d="M16 3.5V5.5" stroke="#3D3F46" stroke-linecap="square"/>
</svg>
