<svg width="24" height="24" viewBox="0 0 24 24" fill="none" xmlns="http://www.w3.org/2000/svg">
<g id="icon/common/line/24/tank">
<path id="Vector 120" d="M2 21H22" stroke="#4651B4" stroke-width="2" stroke-linejoin="round"/>
<path id="Container" d="M4 10.5477C4 9.5318 4.17766 8.50952 4.76307 7.67922C5.80951 6.19503 8.02848 4 12 4C15.9715 4 18.1905 6.19503 19.2369 7.67922C19.8223 8.50952 20 9.53181 20 10.5477V20H4V10.5477Z" fill="#3D6AFF"/>
<g id="Mask group">
<mask id="mask0_4046_1111" style="mask-type:alpha" maskUnits="userSpaceOnUse" x="4" y="4" width="16" height="16">
<path id="Container_2" d="M4 10.5477C4 9.5318 4.17766 8.50952 4.76307 7.67922C5.80951 6.19503 8.02848 4 12 4C15.9715 4 18.1905 6.19503 19.2369 7.67922C19.8223 8.50952 20 9.53181 20 10.5477V20H4V10.5477Z" fill="#393942"/>
</mask>
<g mask="url(#mask0_4046_1111)">
<path id="Vector 94" d="M17 5V20" stroke="#76D8AF"/>
<path id="Vector 95" d="M13 4V20" stroke="#76D8AF"/>
<path id="Vector 96" d="M13 8H17" stroke="#76D8AF"/>
<path id="Vector 97" d="M13 12H17" stroke="#76D8AF"/>
<path id="Vector 98" d="M13 16H17" stroke="#76D8AF"/>
</g>
</g>
</g>
</svg>
