<svg width="24" height="24" viewBox="0 0 24 24" fill="none" xmlns="http://www.w3.org/2000/svg">
<g id="icon/common/line/24/tank-map">
<path id="Rectangle 36309" d="M6 9H5.7604C4.20013 9 2.90033 10.196 2.77076 11.7509L2.27076 17.7509C2.12501 19.4999 3.50528 21 5.2604 21H18.7396C20.4947 21 21.875 19.4999 21.7292 17.7509L21.2292 11.7509C21.0997 10.196 19.7999 9 18.2396 9H18" stroke="#3D3F46"/>
<path id="Container" d="M5 18H19M5.0001 14.5H8.4999M15.4999 13H17.9999M12 15.5L15.4364 10.7488C16.8092 8.85072 17.4118 6.33792 16.0737 4.41527C15.1902 3.1459 13.8737 2 12 2C10.1263 2 8.80981 3.1459 7.92633 4.41527C6.58816 6.33792 7.19075 8.85072 8.56358 10.7488L12 15.5Z" stroke="#3D3F46" stroke-linecap="square"/>
<path id="Rectangle 6" d="M10.7059 7.91382L12 5.91879L13.2941 7.91382C13.8062 8.70329 13.4981 9.76335 12.6427 10.1554C12.2346 10.3424 11.7654 10.3424 11.3573 10.1554C10.5019 9.76335 10.1938 8.70329 10.7059 7.91382Z" stroke="#3D3F46"/>
</g>
</svg>
