<svg width="24" height="24" viewBox="0 0 24 24" fill="none" xmlns="http://www.w3.org/2000/svg">
<g id="icon/common/line/24/tasks">
<path id="Rectangle 36308" d="M19 6V6C19 4.34315 17.6569 3 16 3H7C5.34315 3 4 4.34315 4 6V18C4 19.6569 5.34315 21 7 21H11.5H15.25H16C17.6569 21 19 19.6569 19 18V12" stroke="#3D3F46"/>
<path id="Union" fill-rule="evenodd" clip-rule="evenodd" d="M7 7H15V6H7V7ZM7 10.5H13V9.5H7V10.5ZM11 14H7V13H11V14ZM7 17.5H10V16.5H7V17.5Z" fill="#3D3F46"/>
<path id="Rectangle 36242" d="M18.0476 6.56878C18.6516 5.70013 19.8454 5.48558 20.714 6.08957C21.5827 6.69356 21.7972 7.88736 21.1932 8.75601L15.1102 17.5047L13.2923 18.164L12.552 18.4325L11.9855 18.0385L11.9794 17.2511L11.9645 15.3174L18.0476 6.56878Z" stroke="#3D3F46" stroke-linejoin="round"/>
<path id="Vector 12" d="M17.0398 7.82871C17.0398 7.82871 17.7563 7.90656 18.7952 8.62892C19.8341 9.35128 20.1565 9.9958 20.1565 9.9958" stroke="#3D3F46"/>
</g>
</svg>
